<svg width="65" height="66" viewBox="0 0 65 66" fill="none" xmlns="http://www.w3.org/2000/svg">
<path d="M0.313477 64.3942C0.313477 53.7753 0.313477 43.1564 0.313477 32.5375C0.388737 32.1256 0.463997 31.7137 0.5518 31.3018C1.45492 26.5008 4.00122 22.8968 8.14053 20.4898C8.29105 20.3997 8.44157 20.2968 8.62972 20.1809C8.41648 19.9878 8.24088 19.8334 8.06527 19.6789C5.13012 16.9116 3.88833 13.4878 4.47787 9.45904C5.15521 4.86395 8.62972 1.22135 13.0575 0.281734C13.3962 0.204506 13.7349 0.127277 14.0735 0.0500488C14.8638 0.0500488 15.654 0.0500488 16.4568 0.0500488C16.8205 0.127277 17.1717 0.217377 17.5355 0.294605C22.3772 1.33719 26.2782 5.79069 26.1779 11.467C26.1152 14.7749 24.8106 17.5552 22.3898 19.7562C22.2393 19.8977 22.1013 20.0393 21.9131 20.2195C23.4685 21.0562 24.8357 22.0601 26.0148 23.3215C27.1939 24.5701 28.1095 26.0117 28.8622 27.5562C31.2328 26.681 33.5408 26.7067 35.8363 27.5305C36.2878 26.7711 36.6641 26.0117 37.1408 25.3166C37.63 24.5958 38.1693 23.9136 38.7589 23.2829C39.3358 22.6651 39.9756 22.1116 40.6529 21.6096C41.3302 21.0948 42.0578 20.67 42.7853 20.1938C42.5595 19.9878 42.3713 19.8205 42.1832 19.6403C39.3358 16.9245 38.1191 13.5779 38.646 9.62637C39.248 5.01841 42.7727 1.24709 47.2382 0.307477C47.5768 0.230248 47.9155 0.15302 48.2542 0.0629202C49.0444 0.0629202 49.8346 0.0629202 50.6374 0.0629202C51.0388 0.15302 51.4402 0.24312 51.8416 0.33322C56.5955 1.42729 60.2707 5.70059 60.3711 11.0165C60.4463 14.5561 59.1042 17.5037 56.4952 19.8334C56.3697 19.9364 56.2568 20.0522 56.0938 20.2067C56.3195 20.3482 56.5202 20.4641 56.7084 20.5799C58.0882 21.3651 59.3174 22.3433 60.3836 23.5404C63.0553 26.5523 64.3975 30.0919 64.3975 34.1593C64.3975 43.9029 64.3724 53.6466 64.4226 63.3773C64.4351 64.9991 63.5445 65.8486 62.0268 65.8486C42.2459 65.8229 22.4776 65.8229 2.69671 65.8229C2.54619 65.8229 2.40822 65.8229 2.2577 65.8229C1.42984 65.81 0.827754 65.4239 0.463997 64.6645C0.426367 64.5615 0.36365 64.4843 0.313477 64.3942ZM4.06394 61.9229C9.55793 61.9229 14.9641 61.9229 20.433 61.9229C20.433 61.6783 20.433 61.4724 20.433 61.2536C20.433 59.4773 20.433 57.701 20.433 55.9248C20.433 55.3456 20.4205 54.7664 20.4957 54.2C20.9975 50.4287 22.7912 47.4683 25.8894 45.3574C26.0023 45.2801 26.1026 45.1772 26.2155 45.0742C23.8824 43.0534 22.5654 40.5563 22.4525 37.4415C22.3396 34.3266 23.4685 31.7266 25.5883 29.5899C22.7284 22.6007 14.2617 20.2581 8.46666 24.8532C5.5566 27.1572 4.07648 30.2464 4.06394 34.0048C4.03885 43.1049 4.0514 52.205 4.0514 61.305C4.06394 61.4852 4.06394 61.6783 4.06394 61.9229ZM38.5205 45.0613C38.5582 45.1128 38.5582 45.1386 38.5707 45.1514C38.7087 45.2544 38.8467 45.3445 38.9846 45.4475C42.3212 47.8673 44.1525 51.1366 44.2779 55.3456C44.3281 57.3149 44.2905 59.2842 44.303 61.2536C44.303 61.4852 44.3156 61.7041 44.3156 61.9229C49.8095 61.9229 55.2157 61.9229 60.647 61.9229C60.6595 61.7813 60.6595 61.6783 60.6595 61.5625C60.6595 52.2951 60.6595 43.0276 60.647 33.7474C60.647 32.9365 60.5467 32.1127 60.3585 31.3404C58.339 22.8453 48.505 19.6403 42.0828 25.3423C40.7783 26.5136 39.7749 27.9166 39.1352 29.5642C43.6257 34.0048 43.1992 41.1613 38.5205 45.0613ZM24.2211 61.9229C29.69 61.9229 35.0837 61.9229 40.5024 61.9229C40.5149 61.7684 40.5275 61.6397 40.5275 61.511C40.5275 59.5159 40.54 57.5337 40.5149 55.5387C40.5149 55.0109 40.4647 54.4703 40.3644 53.9426C39.524 49.6564 35.485 46.5415 30.9318 47.3653C26.8176 48.1119 24.1333 51.8446 24.196 55.6674C24.2211 57.5723 24.196 59.4773 24.196 61.3823C24.196 61.5496 24.2086 61.7169 24.2211 61.9229ZM49.4709 3.8986C45.5323 3.8986 42.271 7.19368 42.2835 11.2353C42.2961 15.3413 45.4445 18.6235 49.4834 18.6106C53.6227 18.5977 56.6457 15.1739 56.6331 11.2482C56.6206 7.0907 53.3719 3.91147 49.4709 3.8986ZM8.09036 11.2739C8.14053 15.2512 11.176 18.6106 15.2777 18.5977C19.3668 18.5977 22.4776 15.2383 22.44 11.1838C22.4023 6.93625 19.0407 3.87285 15.2275 3.88573C11.3015 3.91147 8.07781 7.24516 8.09036 11.2739ZM32.3868 43.3623C35.8112 43.3366 38.5331 40.5177 38.508 37.0038C38.4829 33.5028 35.7234 30.7097 32.299 30.7355C28.9249 30.7612 26.203 33.5929 26.2155 37.0682C26.2155 40.5821 28.975 43.3881 32.3868 43.3623Z" fill="#FE5000"/>
</svg>
