<svg width="55" height="55" viewBox="0 0 55 55" fill="none" xmlns="http://www.w3.org/2000/svg">
<path d="M39.9309 26.8236C41.6544 26.8236 43.4009 26.8236 45.1359 26.8236C45.5036 26.8236 45.8483 26.8492 45.7966 26.3162C45.7765 26.0795 45.9718 26.0311 46.1614 26.0083C46.5032 25.9883 46.8479 25.9912 47.1897 25.9798C47.4569 25.9798 47.6091 26.0795 47.5919 26.3561C47.5689 26.7552 47.7987 26.8264 48.1405 26.8236C49.6055 26.8236 51.0676 26.8065 52.5326 26.8236C52.975 26.8236 53.1071 26.6582 53.0698 26.2534C52.9165 24.0314 52.3852 21.8511 51.4985 19.8051C51.2112 19.0981 51.1911 19.0895 51.8662 18.7788C52.9663 18.2742 52.794 18.106 53.3024 19.3033C55.4674 24.4435 55.5651 30.2116 53.5753 35.4209C51.5855 40.6303 47.6595 44.8848 42.6052 47.309C39.3289 48.9087 35.6955 49.6524 32.0488 49.4698C30.0239 49.3817 28.0232 48.9974 26.1113 48.3295C25.4334 48.0929 25.4363 48.0986 25.5368 48.78C25.669 49.5924 25.7609 50.4134 25.9217 51.2202C25.9803 51.4669 25.9559 51.7259 25.8522 51.9576C25.7484 52.1893 25.5711 52.3808 25.3472 52.503C24.5803 53.0447 23.8248 53.5948 23.0492 54.1336C22.0582 54.8264 21.5527 54.6781 21.1304 53.5635C20.2265 51.1803 19.3255 48.7971 18.4274 46.4138C17.9534 45.1538 17.4708 43.8966 17.0084 42.6338C16.8676 42.2432 16.7211 42.2005 16.4339 42.5112C15.5721 43.3864 14.7104 44.2444 13.8285 45.0997C13.721 45.1919 13.6411 45.3117 13.5976 45.4459C13.554 45.5801 13.5484 45.7236 13.5815 45.8608C13.8055 47.2206 13.9807 48.589 14.1933 49.9516C14.2305 50.1361 14.2212 50.3269 14.166 50.507C14.1109 50.6871 14.0117 50.8508 13.8773 50.9836C13.3287 51.5537 12.7944 52.141 12.2371 52.694C11.5477 53.3924 10.8468 53.2642 10.482 52.3291C9.8271 50.6785 9.16929 49.0251 8.56032 47.3574C8.47776 47.1144 8.34117 46.8929 8.16068 46.7093C7.98019 46.5258 7.76041 46.3848 7.5176 46.297C5.98943 45.6498 4.47275 44.9742 2.95607 44.3014C1.90761 43.8311 1.80707 43.1326 2.6918 42.3801C3.19736 41.9467 3.71441 41.5248 4.1855 41.0516C4.37881 40.8381 4.63075 40.6852 4.91039 40.6117C5.19003 40.5383 5.4852 40.5475 5.75963 40.6383C6.47489 40.8264 7.19588 40.949 7.9255 41.1229C8.09603 41.1767 8.2783 41.1823 8.45183 41.139C8.62537 41.0957 8.78331 41.0052 8.9079 40.8777C9.89029 39.9512 10.9014 39.0532 11.8953 38.141C12.3348 37.7391 12.329 37.7162 11.7603 37.4996L1.20097 33.4544C0.978264 33.3796 0.760487 33.291 0.548913 33.1893C0.428533 33.1427 0.320238 33.0699 0.232042 32.9762C0.143846 32.8825 0.0780048 32.7704 0.0393908 32.648C0.000776912 32.5257 -0.00962191 32.3963 0.00896375 32.2694C0.0275494 32.1425 0.0746439 32.0214 0.146763 31.915C0.692538 31.0598 1.29576 30.2046 1.87026 29.3807C1.97465 29.2429 2.117 29.1381 2.28013 29.0789C2.44325 29.0197 2.62016 29.0087 2.78947 29.0472C5.3977 29.4273 8.00689 29.7931 10.617 30.1447C10.7578 30.1646 10.9043 30.1646 11.0479 30.1875C11.3352 30.2302 11.3811 30.1219 11.3524 29.8568C10.9962 26.3814 11.4896 22.8721 12.7909 19.6263C14.0922 16.3805 16.163 13.494 18.8277 11.2115C21.4924 8.929 24.6724 7.31786 28.098 6.51467C31.5237 5.71148 35.094 5.73994 38.5062 6.59762C39.0146 6.7202 39.1324 6.91975 38.9715 7.41578C38.5378 8.76417 38.7733 8.53897 37.4979 8.271C36.5267 8.06598 35.5433 7.92315 34.5536 7.84339C34.1629 7.80918 34.005 7.93461 34.005 8.34797C34.0184 11.613 34.0184 14.8781 34.005 18.1431C34.005 18.5479 34.1515 18.6819 34.5479 18.6562C36.3514 18.5652 38.1402 18.2861 39.885 17.8238C40.3388 17.7012 40.5313 17.7868 40.6462 18.2514C40.9851 19.6112 41.2207 19.3917 39.6954 19.7766C38.01 20.1823 36.289 20.4258 34.5565 20.5035C34.14 20.5235 33.9992 20.6746 34.005 21.0737C34.026 22.8145 34.026 24.5544 34.005 26.2933C34.005 26.6953 34.14 26.8236 34.5392 26.8207C36.3288 26.8036 38.1184 26.8207 39.9079 26.8207L39.9309 26.8236ZM32.1752 42.1891C32.1752 40.5926 32.1752 38.9962 32.1752 37.3998C32.1752 36.9266 32.0172 36.7641 31.5432 36.7955C29.8125 36.9047 28.0948 37.1651 26.4101 37.5737C25.2898 37.8445 25.3156 37.836 24.9594 36.7185C24.8072 36.2396 24.9192 36.0685 25.3989 35.9374C27.4401 35.3903 29.5329 35.054 31.6438 34.9339C31.9511 34.9111 32.1694 34.857 32.1666 34.4835C32.1666 32.6742 32.1666 30.8621 32.1666 29.0472C32.1666 28.7621 32.0459 28.5939 31.7443 28.631C31.2531 28.6908 31.0951 28.4628 31.1439 28.0066C31.1641 27.7923 31.1641 27.5767 31.1439 27.3624C31.1123 26.9775 31.2531 26.7922 31.6639 26.8264C32.0746 26.8606 32.1694 26.681 32.1666 26.3219C32.1666 24.5449 32.1666 22.7689 32.1666 20.9938C32.1666 20.6033 31.9913 20.4607 31.6093 20.4408C28.4097 20.2641 25.2653 19.5368 22.3167 18.2913C21.9175 18.126 21.7422 18.1488 21.5843 18.6078C20.8728 20.7759 20.4357 23.0233 20.283 25.2984C20.2514 25.8372 19.8062 26.6098 20.7311 26.9376C20.7311 26.9376 20.7598 26.9661 20.7598 26.9804C20.7598 27.4479 20.78 27.9126 20.78 28.3772C20.78 28.6338 20.5358 28.591 20.3864 28.6623C20.335 28.6878 20.2939 28.73 20.2699 28.7818C20.2459 28.8336 20.2404 28.892 20.2543 28.9474C20.3031 29.3949 20.0503 29.4976 19.6798 29.4947C19.4392 29.5003 19.1992 29.5222 18.9617 29.5603C18.6428 29.6031 18.4274 29.5232 18.4159 29.1555C18.4159 28.7136 18.1574 28.6081 17.7408 28.6167C16.5918 28.6395 15.4428 28.6167 14.2709 28.6167C13.0989 28.6167 13.1219 28.3316 13.2052 29.8083C13.2281 30.3186 13.4493 30.5466 13.9951 30.6065C15.3969 30.7519 16.7929 30.9457 18.1803 31.1767C18.3882 31.2242 18.6053 31.2143 18.8079 31.148C19.0104 31.0816 19.1908 30.9614 19.3293 30.8004C21.0184 29.1412 22.7304 27.4935 24.4194 25.8344C24.5973 25.6039 24.8418 25.4328 25.1203 25.3441C26.2205 25.1502 27.3206 24.9364 28.4294 24.7967C29.0872 24.7169 29.4463 25.0818 29.4578 25.7489C29.4578 26.5727 29.4578 27.3994 29.4578 28.2233C29.467 28.4369 29.4334 28.6502 29.3589 28.8508C29.2845 29.0515 29.1706 29.2354 29.024 29.3921C27.2919 31.4389 25.5426 33.5 23.7875 35.5468C23.6841 35.6456 23.6061 35.7676 23.5601 35.9026C23.5141 36.0375 23.5015 36.1814 23.5232 36.3222C23.753 37.682 23.9454 39.0475 24.1867 40.4073C24.316 41.1229 24.3103 41.8669 24.7182 42.5283C25.5733 43.9223 26.5005 45.2715 27.4959 46.5706C27.677 46.8176 27.9424 46.9908 28.2427 47.0581C29.3173 47.2998 30.4049 47.4806 31.5001 47.5997C32.0028 47.6596 32.1665 47.4743 32.1608 46.9754C32.1378 45.3819 32.1522 43.7855 32.1522 42.1891H32.1752ZM27.6251 27.465C27.5504 27.3253 27.8635 26.7979 27.4068 26.8407C26.7002 26.9091 25.9562 26.8977 25.3587 27.5021C23.6352 29.2439 21.8514 30.9229 20.1135 32.6334C19.9386 32.8262 19.717 32.9715 19.4697 33.0558C19.2225 33.1401 18.9577 33.1605 18.7003 33.1152L12.2687 32.2257L3.47599 30.9999C3.39876 30.9732 3.31638 30.9645 3.2352 30.9744C3.15402 30.9842 3.07622 31.0125 3.00778 31.0569C2.76936 31.2764 2.49073 31.533 2.47636 31.8409C2.462 32.1488 2.85553 32.1088 3.07097 32.1944C6.74203 33.6197 10.4188 35.0109 14.0899 36.422C15.1872 36.8439 15.2992 37.5623 14.4231 38.3548C12.9122 39.7146 11.3869 41.0659 9.91614 42.4684C9.31866 43.0386 8.73555 43.2581 7.92263 43.0129C7.20163 42.7906 6.44616 42.6822 5.70506 42.5226C5.53439 42.4845 5.35555 42.5115 5.20394 42.5981C5.05234 42.6846 4.93901 42.8246 4.88639 42.9901C4.7916 43.2495 5.19088 43.2752 5.38046 43.3578C6.58117 43.8995 7.78188 44.4383 8.99694 44.9486C9.23941 45.0432 9.45798 45.1895 9.63717 45.3772C9.81636 45.5648 9.95181 45.7893 10.0339 46.0347C10.5194 47.3489 11.0364 48.6488 11.5506 49.9516C11.6167 50.1141 11.6052 50.4248 11.8378 50.3878C12.0705 50.3507 12.2027 50.1027 12.2515 49.8661C12.2773 49.7065 12.2773 49.5439 12.2515 49.3843C12.0648 48.1271 11.8867 46.8671 11.677 45.6128C11.6164 45.3607 11.625 45.0972 11.7018 44.8496C11.7786 44.6019 11.9208 44.3792 12.1136 44.2045C13.5183 42.8362 14.9028 41.4422 16.296 40.0624C17.1003 39.2699 17.7811 39.4181 18.1775 40.4644C19.518 44.0221 20.8585 47.5807 22.199 51.1404C22.6011 52.2037 22.5925 52.198 23.5318 51.5395C23.8191 51.3285 24.0402 51.129 23.9656 50.7099C23.7616 49.5696 23.5921 48.4122 23.4083 47.2634C22.8146 43.5498 22.2181 39.8353 21.6187 36.1198C21.5718 35.8919 21.579 35.6563 21.6398 35.4316C21.7007 35.207 21.8134 34.9995 21.9692 34.8256C23.7472 32.7702 25.4966 30.692 27.2689 28.6338C27.4251 28.4862 27.54 28.3009 27.6024 28.096C27.6649 27.8912 27.6727 27.6738 27.6251 27.465ZM39.8735 28.6252C38.15 28.6252 36.4092 28.6452 34.6742 28.6252C34.14 28.6252 34.005 28.7963 34.0136 29.3009C34.0423 30.9686 34.0394 32.6334 34.0136 34.3011C34.0136 34.7429 34.1199 34.9624 34.5881 34.9938C35.289 35.0366 35.9899 35.0936 36.685 35.1905C38.9947 35.4996 41.2565 36.0933 43.4181 36.9579C43.7198 37.0777 43.9093 37.072 44.0386 36.7185C44.9142 34.3075 45.4647 31.7923 45.6759 29.2382C45.7161 28.7564 45.5409 28.6195 45.067 28.6252C43.3406 28.6395 41.6085 28.6252 39.8735 28.6252ZM32.1522 13.3111C32.1522 11.6947 32.135 10.0812 32.1522 8.46485C32.1522 7.95742 31.9741 7.79777 31.4829 7.84624C30.0464 7.97618 28.6268 8.2503 27.246 8.6644C27.0247 8.74176 26.8337 8.88641 26.7002 9.07775C25.0781 11.1239 23.7212 13.364 22.6614 15.7456C22.4259 16.2645 22.5494 16.4298 23.0377 16.6294C25.7893 17.7352 28.6957 18.415 31.6552 18.6448C32.1034 18.6819 32.1608 18.4481 32.1608 18.0946C32.1464 16.4982 32.1522 14.9018 32.1522 13.3111ZM34.0251 42.1719C34.0251 43.7855 34.0452 45.399 34.0251 47.0182C34.0251 47.5541 34.2261 47.671 34.6944 47.6083C35.7174 47.5 36.7338 47.3373 37.7392 47.1208C38.0201 47.0617 38.2694 46.9024 38.4401 46.6733C40.2179 44.3866 41.7397 41.9147 42.9787 39.3013C43.1567 38.9278 43.0936 38.7853 42.7115 38.637C40.1119 37.6486 37.3831 37.0342 34.6082 36.8126C34.1428 36.7727 34.0337 36.9551 34.0337 37.3827C34.0366 38.9677 34.0251 40.5698 34.0251 42.1662V42.1719ZM50.3438 28.631C49.5854 28.631 48.8242 28.631 48.0659 28.631C47.7326 28.631 47.5861 28.725 47.5603 29.0814C47.3581 31.9465 46.7429 34.768 45.7334 37.4597C45.6978 37.5158 45.6761 37.5795 45.6701 37.6455C45.6642 37.7115 45.6741 37.778 45.699 37.8395C45.724 37.901 45.7633 37.9557 45.8137 37.9992C45.8641 38.0427 45.9242 38.0737 45.989 38.0897C46.9069 38.513 47.7946 38.9978 48.6461 39.5407C48.9793 39.7517 49.1402 39.6604 49.3441 39.3754C49.9739 38.4992 50.5338 37.5756 51.0188 36.613C52.181 34.2987 52.874 31.7804 53.0583 29.2011C53.087 28.7792 52.9462 28.631 52.5125 28.631C51.7886 28.6452 51.0676 28.6252 50.3438 28.6252V28.631ZM15.7071 26.8236C16.431 26.8236 17.1434 26.8236 17.873 26.8236C18.2292 26.8236 18.3412 26.6896 18.3498 26.3504C18.4248 23.4302 18.9409 20.5378 19.8809 17.7696C20.013 17.3734 19.9096 17.1995 19.5563 17.0114C18.9617 16.732 18.3872 16.387 17.8127 16.0564C17.1577 15.6772 17.1577 15.6687 16.7326 16.2816C14.6228 19.2577 13.3804 22.7534 13.142 26.3846C13.119 26.7324 13.2138 26.8321 13.5441 26.8264C14.2651 26.8122 14.9861 26.8236 15.7071 26.8236ZM41.4131 45.8095C43.7421 44.7777 45.8457 43.3049 47.6063 41.4735C47.8475 41.2226 47.7125 41.1143 47.4942 40.9946C46.7493 40.5898 46.0072 40.1831 45.268 39.7745C45.0124 39.6319 44.8515 39.649 44.7165 39.937C43.7625 41.9725 42.6584 43.9353 41.4131 45.8095ZM23.3824 10.4262C21.5985 11.318 19.9887 12.5179 18.6284 13.9696C18.4188 14.1891 18.4561 14.326 18.7089 14.4628C19.246 14.7479 19.7861 15.0329 20.3117 15.3579C20.599 15.5347 20.7397 15.4663 20.8862 15.1669C21.3085 14.2547 21.748 13.351 22.2076 12.4616C22.5666 11.7688 22.9832 11.1046 23.3824 10.4262Z" fill="white"/>
<path d="M39.8071 7.40998C39.7324 4.7816 40.7321 2.72052 43.0214 1.35502C46.8677 -0.942675 51.9951 1.52606 52.5696 5.94755C52.8569 8.17683 52.4978 10.3776 52.0871 12.5613C51.4871 15.5729 50.4365 18.4786 48.9704 21.1819C48.5366 22.0086 48.1517 22.861 47.7007 23.6791C47.0343 24.8878 45.4573 24.9335 44.8282 23.7247C42.9898 20.2468 41.1945 16.749 40.4419 12.8349C40.0776 11.0475 39.8652 9.23275 39.8071 7.40998ZM46.207 22.325C46.3823 22.2509 46.411 22.0998 46.4742 21.9772C47.0487 20.854 47.6232 19.7423 48.1575 18.6048C49.9297 14.8795 50.8237 10.8024 50.7715 6.68304C50.7346 5.53264 50.2527 4.44054 49.4257 3.6336C48.5987 2.82667 47.4902 2.36694 46.3306 2.34993C43.8229 2.32712 41.7863 4.18295 41.7001 6.58897C41.6597 8.32657 41.7954 10.0638 42.1051 11.7745C42.7313 15.5061 44.3342 18.8699 46.0778 22.1825C46.1139 22.2358 46.1574 22.2838 46.207 22.325Z" fill="white"/>
<path d="M46.2247 11.6234C45.4663 11.6205 44.7257 11.3948 44.0965 10.9746C43.4673 10.5544 42.9776 9.95859 42.6894 9.26241C42.4011 8.56624 42.3272 7.80092 42.4769 7.06307C42.6266 6.32522 42.9932 5.64792 43.5305 5.11671C44.0677 4.58549 44.7516 4.22418 45.4956 4.07837C46.2396 3.93257 47.0105 4.00882 47.7109 4.2975C48.4113 4.58617 49.0099 5.07433 49.4309 5.70034C49.852 6.32634 50.0767 7.06212 50.0767 7.81478C50.0825 8.31774 49.9867 8.81675 49.795 9.28237C49.6033 9.74799 49.3196 10.1708 48.9605 10.5258C48.6015 10.8808 48.1744 11.1608 47.7045 11.3493C47.2346 11.5378 46.7314 11.631 46.2247 11.6234ZM48.2009 7.82904C48.2086 7.569 48.164 7.31006 48.0697 7.06733C47.9754 6.8246 47.8333 6.60295 47.6517 6.41532C47.4701 6.22768 47.2527 6.07784 47.0121 5.97452C46.7715 5.8712 46.5126 5.81649 46.2505 5.81357C45.7153 5.81016 45.2007 6.01789 44.8198 6.39106C44.439 6.76422 44.2231 7.27225 44.2197 7.80338C44.2162 8.33451 44.4255 8.84524 44.8016 9.22322C45.1776 9.60119 45.6895 9.81545 46.2247 9.81885C46.4869 9.81965 46.7466 9.76851 46.9886 9.66844C47.2306 9.56837 47.4501 9.42137 47.6341 9.23606C47.8182 9.05075 47.9631 8.83085 48.0604 8.58925C48.1578 8.34765 48.2055 8.0892 48.2009 7.82904Z" fill="white"/>
</svg>
