<svg width="22" height="34" viewBox="0 0 22 34" fill="none" xmlns="http://www.w3.org/2000/svg">
<path d="M0.518947 15.9129C0.518947 14.2887 0.450455 12.6644 0.528732 11.0402C0.714639 7.06766 2.60306 4.10293 6.0668 2.1558C7.70083 1.23605 9.50119 0.854448 11.3798 0.92294C16.3308 1.10885 20.3719 4.65086 21.3014 9.39638C21.4188 10.0128 21.4775 10.6586 21.4873 11.2848C21.5069 14.4354 21.5264 19.5861 21.4775 22.7367C21.409 27.4627 17.9844 31.6015 13.3661 32.6485C7.80846 33.9009 2.36823 30.6329 0.851623 25.1339C0.597224 24.1946 0.499378 23.2455 0.499378 22.2768C0.509163 20.8189 0.509163 17.3708 0.518947 15.9129C0.509163 15.9129 0.509163 15.9129 0.518947 15.9129ZM1.99642 15.9031C1.99642 17.3806 1.99642 20.8581 1.99642 22.3355C1.99642 23.0205 2.06491 23.6956 2.21168 24.3707C3.39561 29.674 8.94347 32.7855 14.1489 30.8579C17.7007 29.5468 19.9903 26.22 20 22.4138C20.0098 19.4197 20.0098 14.4354 20 11.4414C20 10.8739 19.9511 10.2966 19.8435 9.72906C18.9433 5.0716 14.6087 1.87204 9.84365 2.50804C7.27031 2.8505 5.21554 4.10293 3.68915 6.19683C2.58349 7.72322 2.03556 9.44531 2.0062 11.3239C1.98663 12.8503 1.99642 14.3767 1.99642 15.9031Z" fill="#989898"/>
<path d="M0.518947 15.9129C0.518947 14.2887 0.450455 12.6644 0.528732 11.0402C0.714639 7.06766 2.60306 4.10293 6.0668 2.1558C7.70083 1.23605 9.50119 0.854448 11.3798 0.92294C16.3308 1.10885 20.3719 4.65086 21.3014 9.39638C21.4188 10.0128 21.4775 10.6586 21.4873 11.2848C21.5069 14.4354 21.5264 19.5861 21.4775 22.7367C21.409 27.4627 17.9844 31.6015 13.3661 32.6485C7.80846 33.9009 2.36823 30.6329 0.851623 25.1339C0.597224 24.1946 0.499378 23.2455 0.499378 22.2768C0.509163 20.8189 0.509163 17.3708 0.518947 15.9129ZM0.518947 15.9129C0.509163 15.9129 0.509163 15.9129 0.518947 15.9129ZM1.99642 15.9031C1.99642 17.3806 1.99642 20.8581 1.99642 22.3355C1.99642 23.0205 2.06491 23.6956 2.21168 24.3707C3.39561 29.674 8.94347 32.7855 14.1489 30.8579C17.7007 29.5468 19.9903 26.22 20 22.4138C20.0098 19.4197 20.0098 14.4354 20 11.4414C20 10.8739 19.9511 10.2966 19.8435 9.72906C18.9433 5.0716 14.6087 1.87204 9.84365 2.50804C7.27031 2.8505 5.21554 4.10293 3.68915 6.19683C2.58349 7.72322 2.03556 9.44531 2.0062 11.3239C1.98663 12.8503 1.99642 14.3767 1.99642 15.9031Z" stroke="#989898" stroke-width="0.7" stroke-linejoin="round"/>
<path d="M11.6264 7.03903C11.6264 9.24144 11.6264 13.4274 11.6264 15.6791C11.8483 15.4655 12.0291 15.2929 12.2017 15.1121C12.3743 14.9395 12.5468 14.7669 12.7276 14.5861C12.9084 14.4054 13.0892 14.2246 13.27 14.0438C13.4426 13.8712 13.6152 13.6986 13.7878 13.5178C13.9685 13.337 14.1493 13.1562 14.3301 12.9754C14.626 13.2795 14.9054 13.5589 15.2095 13.8712C15.1519 13.9287 15.0944 14.0027 15.0287 14.0766C13.9685 15.1368 12.9084 16.1886 11.8483 17.2488C11.7168 17.3802 11.5936 17.52 11.4539 17.635C11.1662 17.8898 10.8539 17.8898 10.5663 17.635C10.4266 17.5117 10.3033 17.372 10.1719 17.2488C9.11996 16.1969 8.06806 15.145 7.01616 14.0931C6.9422 14.0191 6.87646 13.9451 6.82715 13.8958C7.12299 13.6 7.41062 13.3124 7.71469 13.0083C8.56114 13.863 9.44867 14.7423 10.3773 15.6709C10.3773 13.4192 10.3773 9.23323 10.3773 7.0226C10.7964 7.03903 11.1909 7.03903 11.6264 7.03903Z" fill="#989898" stroke="#989898" stroke-width="0.7" stroke-linejoin="round"/>
</svg>
