<svg width="22" height="21" viewBox="0 0 22 21" fill="none" xmlns="http://www.w3.org/2000/svg">
<path opacity="0.8" d="M16.5683 21.0002C12.8536 21.0002 9.14423 21.0002 5.42952 21.0002C5.37599 20.9895 5.32782 20.9681 5.27429 20.9627C4.41787 20.8664 3.62568 20.5881 2.91914 20.0849C1.50605 19.0786 0.794152 17.6869 0.740626 15.9634C0.719215 15.3478 0.735273 14.7323 0.735273 14.1221C0.735273 11.3066 0.735273 8.48579 0.735273 5.67032C0.735273 4.67473 0.965435 3.73267 1.5007 2.89231C2.49628 1.34005 3.93614 0.510395 5.76673 0.488985C9.25128 0.456869 12.7358 0.47828 16.2204 0.483632C16.4773 0.483632 16.7396 0.515748 16.9965 0.558569C19.084 0.895783 20.7112 2.45339 21.1394 4.52486C21.1823 4.73896 21.2144 4.95842 21.2572 5.17252C21.2572 8.88724 21.2572 12.602 21.2572 16.3113C21.2144 16.5415 21.193 16.7716 21.1341 16.9964C20.6095 19.0786 19.3088 20.3793 17.216 20.8824C17.0019 20.936 16.7824 20.9627 16.5683 21.0002ZM19.2071 10.7446C19.2071 10.477 19.2071 10.2093 19.2071 9.9417C19.2071 8.5072 19.2125 7.06735 19.2071 5.63285C19.2018 4.6212 18.8218 3.77549 18.0082 3.14923C17.4301 2.70497 16.761 2.52833 16.0384 2.52833C12.677 2.52833 9.32087 2.52833 5.95942 2.52833C5.90055 2.52833 5.84167 2.52833 5.77744 2.52833C4.80861 2.57115 4.00572 2.94583 3.40623 3.71661C2.96196 4.29469 2.77997 4.95842 2.77997 5.68102C2.77997 9.04782 2.77997 12.4146 2.77997 15.7814C2.77997 15.8403 2.77997 15.8992 2.77997 15.9634C2.82815 16.9322 3.20283 17.7351 3.97896 18.3292C4.55704 18.7735 5.22612 18.9502 5.94872 18.9502C9.31016 18.9502 12.6663 18.9502 16.0277 18.9502C16.0866 18.9502 16.1454 18.9502 16.2097 18.9502C17.1839 18.902 17.9921 18.5273 18.5916 17.7458C19.0252 17.1784 19.2071 16.5254 19.2071 15.8135C19.2071 14.1221 19.2071 12.4307 19.2071 10.7446Z" fill="white"/>
<path opacity="0.8" d="M16.1238 10.7333C16.1238 13.6076 13.865 15.8718 10.9906 15.8664C8.12697 15.8611 5.86816 13.6076 5.86816 10.7386C5.86816 7.86428 8.12697 5.60013 11.0013 5.60548C13.8703 5.61083 16.1238 7.86963 16.1238 10.7333ZM14.0791 10.7386C14.0791 9.00439 12.7463 7.66088 11.012 7.65553C9.27243 7.65018 7.92357 8.99368 7.92357 10.7333C7.92357 12.4675 9.26172 13.811 10.9906 13.8164C12.7302 13.8271 14.0791 12.4782 14.0791 10.7386Z" fill="white"/>
<path opacity="0.8" d="M16.1293 6.63843C15.5619 6.63843 15.0963 6.1674 15.1016 5.60538C15.107 5.04335 15.5673 4.58838 16.124 4.58838C16.6913 4.58838 17.157 5.05941 17.1517 5.62143C17.1463 6.1781 16.686 6.63308 16.1293 6.63843Z" fill="white"/>
</svg>
