<svg width="58" height="65" viewBox="0 0 58 65" fill="none" xmlns="http://www.w3.org/2000/svg">
<path d="M47.1262 64.8197C35.2064 64.8197 23.2866 64.8197 11.3668 64.8197C11.3499 64.5849 11.3329 64.367 11.3329 64.1322C11.3329 62.2877 11.316 60.4432 11.3499 58.6155C11.3499 58.0957 11.2144 57.6932 10.9097 57.2908C7.60801 52.646 4.30636 47.9845 1.0047 43.3229C0.852319 43.1217 0.716866 42.9037 0.598345 42.7193C0.598345 39.7178 0.598345 36.7498 0.598345 33.7651C0.598345 30.2438 0.581414 26.7392 0.598345 23.2179C0.615277 20.6356 2.35923 18.4222 4.8651 17.785C5.33918 17.6677 5.81326 17.6174 6.18576 17.5671C6.94768 16.7287 7.59108 15.8902 8.353 15.186C9.13185 14.465 10.0462 13.8948 10.9097 13.2576C7.59108 9.31713 8.9456 4.70589 11.5531 2.42542C14.4484 -0.0897973 18.8167 -0.106566 21.6951 2.42542C23.185 3.73334 24.0485 5.37662 24.2517 7.32172C24.4888 9.56865 23.7776 11.5641 22.2538 13.308C23.6253 14.029 24.7935 14.9512 25.8094 16.0579C28.1121 15.0015 30.3979 15.0351 32.6836 16.0579C33.7165 14.9009 34.9017 14.029 36.2223 13.308C33.2254 9.87048 33.7334 5.35985 36.5102 2.69371C39.3716 -0.0562609 43.8077 -0.190406 46.8384 2.34158C49.6152 4.67236 50.8681 9.35067 47.5157 13.3247C49.4459 14.3476 51.0205 15.7896 52.1888 17.5838C53.2893 17.6174 54.2544 17.8689 55.1349 18.4055C56.9465 19.5457 57.8947 21.2057 57.8947 23.3353C57.9116 29.6737 57.8947 36.012 57.8947 42.3504C57.8947 42.4678 57.8947 42.6019 57.8947 42.7025C57.7254 42.9373 57.59 43.1385 57.4376 43.3397C54.1528 47.9845 50.8681 52.6292 47.5665 57.2573C47.2617 57.6932 47.1262 58.1292 47.1432 58.649C47.1601 60.4767 47.1601 62.2877 47.1432 64.1154C47.1601 64.3669 47.1432 64.5849 47.1262 64.8197ZM31.2106 46.3077C31.2106 51.3046 31.2106 56.1673 31.2106 61.0301C35.2742 61.0301 39.3039 61.0301 43.3674 61.0301C43.3674 59.5713 43.3674 58.146 43.3674 56.7374C46.9739 51.6567 50.5464 46.5927 54.119 41.5623C54.119 41.4114 54.119 41.3443 54.119 41.2604C54.119 35.3413 54.119 29.4221 54.119 23.503C54.119 23.3856 54.119 23.2515 54.119 23.1341C54.0343 22.2789 53.3571 21.5579 52.5105 21.4237C51.647 21.2896 50.7835 21.7591 50.4787 22.5807C50.3602 22.8826 50.3263 23.2347 50.3263 23.5533C50.3094 27.4938 50.2924 31.4175 50.3263 35.3581C50.3432 37.2529 49.6998 38.8123 48.3453 40.137C46.0257 42.3839 43.7399 44.6811 41.4372 46.9616C41.2849 47.1125 41.1325 47.2467 41.0478 47.3305C40.1505 46.4418 39.27 45.5699 38.3218 44.6141C38.4404 44.5302 38.6266 44.4296 38.779 44.2787C41.014 42.0821 43.232 39.8687 45.45 37.6721C45.6701 37.4541 45.9072 37.2361 46.1104 36.9846C46.5844 36.3641 46.6522 35.6767 46.2966 34.9892C45.958 34.3184 45.3654 33.9831 44.6034 33.9663C43.96 33.9495 43.486 34.2681 43.0627 34.7041C39.2361 38.5105 35.3927 42.3168 31.5492 46.1064C31.3968 46.1735 31.2445 46.2574 31.2106 46.3077ZM27.3333 61.0301C27.3333 56.117 27.3333 51.271 27.3333 46.425C27.2486 46.3412 27.1809 46.2574 27.0962 46.1903C23.202 42.3336 19.2908 38.4769 15.3965 34.6035C15.278 34.4861 15.1595 34.3687 15.024 34.2681C13.9573 33.5136 12.4843 34.0166 12.1118 35.2575C11.8578 36.0791 12.1457 36.7163 12.7383 37.2864C15.0918 39.6004 17.4283 41.9312 19.7818 44.2452C19.9342 44.3961 20.0696 44.547 20.1712 44.6476C19.2738 45.5363 18.3934 46.4083 17.496 47.297C17.4114 47.2131 17.259 47.079 17.1405 46.9616C14.8039 44.6476 12.4843 42.3336 10.1477 40.0531C8.84401 38.7788 8.20061 37.2696 8.21754 35.4419C8.23448 32.256 8.21754 29.0868 8.21754 25.9008C8.21754 24.9953 8.23448 24.1066 8.21754 23.2012C8.18368 22.2454 7.43869 21.474 6.52439 21.3902C5.57622 21.3064 4.71271 21.8932 4.4926 22.8155C4.42488 23.067 4.42488 23.3521 4.42488 23.6204C4.42488 29.3886 4.42488 35.1736 4.42488 40.9418C4.42488 41.1431 4.42488 41.3611 4.42488 41.5455C8.01437 46.6263 11.6039 51.6735 15.1933 56.7374C15.1933 58.1627 15.1933 59.5713 15.1933 61.0133C19.24 61.0301 23.2528 61.0301 27.3333 61.0301ZM46.4998 30.445C46.4998 30.1264 46.4998 29.9084 46.4998 29.6737C46.4998 27.4938 46.4828 25.3139 46.5167 23.1509C46.5336 21.692 47.0755 20.4176 48.0913 19.3612C48.2268 19.2271 48.3961 19.1265 48.5316 19.0259C45.2807 14.6997 38.6943 14.7835 35.6128 18.5731C37.5938 21.8932 37.3398 25.0456 34.9017 28.0807C36.9165 29.1538 38.5081 30.6462 39.7272 32.5913C40.6245 31.6523 41.505 30.8307 42.724 30.445C43.9601 30.0593 45.1791 30.0593 46.4998 30.445ZM12.0102 30.445C14.7701 29.6569 16.9542 30.5121 18.749 32.6081C19.985 30.6294 21.5765 29.1538 23.5914 28.0807C21.1363 25.0289 20.9162 21.8597 22.8972 18.5564C19.4262 14.4817 12.8229 15.0183 10.0462 18.9924C11.5869 20.3338 12.0949 22.0777 12.0271 24.0563C11.9763 25.9511 12.0102 27.8627 12.0102 29.7743C12.0102 29.9755 12.0102 30.1935 12.0102 30.445ZM21.6951 35.2239C24.2856 37.7894 26.8253 40.3047 29.2804 42.736C31.7524 40.3047 34.2921 37.7894 36.8488 35.2742C35.8837 32.9267 32.9884 30.4115 29.0772 30.5121C25.7925 30.5959 22.6094 32.6584 21.6951 35.2239ZM16.6156 11.9665C18.7659 11.9833 20.4929 10.2729 20.5098 8.16013C20.5268 6.04734 18.7998 4.30346 16.6664 4.30346C14.533 4.28669 12.7721 5.99704 12.7721 8.10983C12.7721 10.2394 14.4822 11.9665 16.6156 11.9665ZM41.8436 11.9665C43.9939 11.9665 45.7209 10.2729 45.7379 8.16013C45.7548 6.04734 44.0108 4.32022 41.8944 4.30346C39.761 4.28669 38.0171 6.01381 38.0001 8.10983C38.0001 10.2394 39.7102 11.9665 41.8436 11.9665ZM33.1239 22.8826C33.1239 20.7698 31.3799 19.0594 29.2465 19.0594C27.1132 19.0594 25.3692 20.7865 25.3861 22.8993C25.3861 25.0121 27.1301 26.7392 29.2635 26.7225C31.3968 26.7225 33.1239 24.9953 33.1239 22.8826Z" fill="#FE5000"/>
</svg>
