<svg width="58" height="67" viewBox="0 0 58 67" fill="none" xmlns="http://www.w3.org/2000/svg">
<path d="M46.0986 66.5224C45.8068 66.4435 45.4957 66.3647 45.204 66.2661C42.7925 65.5365 41.1589 63.9591 40.4782 61.5141C39.8948 59.3648 40.2254 57.3141 41.5673 55.4804C41.6645 55.3621 41.7423 55.2438 41.859 55.0466C39.1753 51.0241 36.4915 47.0017 33.7689 42.9398C31.2601 43.8863 28.8098 43.8271 26.3205 42.7821C24.0646 46.0158 21.8087 49.2298 19.5528 52.503C21.0697 54.5734 21.6142 56.8606 21.0697 59.3648C20.6418 61.2972 19.65 62.8746 18.0748 64.0577C14.9048 66.4435 10.5486 66.1675 7.72872 63.4267C4.90884 60.6859 4.44211 56.2691 6.65912 52.9762C8.79834 49.8016 13.174 48.3228 17.1802 50.4523C19.3389 47.3566 21.517 44.2412 23.6951 41.106C20.564 37.8329 19.7861 34.047 21.3808 29.6894C17.7831 26.85 14.1464 23.9909 10.4903 21.1121C8.87612 22.1571 7.1453 22.5121 5.27835 21.9403C3.87813 21.5065 2.75018 20.6586 1.95283 19.4164C0.494272 17.1488 0.630404 14.0137 2.67239 11.8447C4.53934 9.8729 7.53425 9.39967 9.94573 10.7602C12.3572 12.1207 13.8547 15.2953 12.4739 18.6671C15.9939 21.4473 19.5528 24.2472 23.1117 27.0472C26.6511 23.6754 30.5989 23.0642 34.9941 25.1543C37.6778 21.3093 40.381 17.4446 43.1036 13.5404C41.4312 11.5292 40.7505 9.26165 41.3145 6.67861C41.684 4.92371 42.598 3.48431 43.9788 2.36039C46.7792 0.112549 50.7854 0.19142 53.508 2.51813C56.2501 4.88428 56.9502 8.80814 55.2389 12.0222C53.7609 14.7827 50.0464 17.0897 45.6318 15.3742C42.9092 19.2783 40.1865 23.1825 37.4055 27.1458C38.1445 28.0331 38.7669 28.9795 39.1947 30.064C39.6226 31.1485 39.8559 32.2724 39.9143 33.4949C41.9562 33.909 43.9788 34.3034 46.0208 34.7174C46.9348 33.0217 48.2767 31.9175 50.1047 31.4837C51.4661 31.1682 52.7885 31.3654 54.0526 31.9569C56.4252 33.0809 57.8448 35.9005 57.3392 38.5033C56.7947 41.3821 54.4804 43.3342 51.7578 43.5116C50.1242 43.6102 48.6656 43.0778 47.4404 41.9933C46.2152 40.9089 45.5735 39.4695 45.4179 37.8132C43.4343 37.4188 41.509 37.0244 39.5059 36.6301C38.903 38.5033 37.8917 40.061 36.4137 41.3427C39.078 45.3257 41.7034 49.2692 44.3288 53.2128C44.8345 53.0945 45.3012 52.9565 45.7679 52.8776C49.0351 52.2466 52.3801 54.2579 53.3719 57.4916C54.7721 62.1056 51.5633 65.99 47.9655 66.4041C47.8683 66.4238 47.771 66.483 47.6738 66.5224C47.1876 66.5224 46.6431 66.5224 46.0986 66.5224ZM30.2683 40.4553C33.905 40.4356 36.861 37.4188 36.8416 33.7315C36.8221 30.1035 33.8078 27.0669 30.2294 27.0866C26.6511 27.1063 23.6562 30.1429 23.6562 33.771C23.6562 37.4582 26.6511 40.4751 30.2683 40.4553ZM13.2907 52.6016C10.5875 52.6016 8.42883 54.81 8.42883 57.531C8.42883 60.0944 10.393 62.4802 13.2907 62.4605C16.0328 62.4605 18.1526 60.3507 18.1526 57.531C18.172 54.6917 15.955 52.6016 13.2907 52.6016ZM48.6267 12.8109C50.8826 12.8306 53.0219 11.0757 53.0413 8.37434C53.0607 5.69271 50.941 3.9181 48.6656 3.89838C46.4681 3.87867 44.2705 5.5744 44.251 8.33491C44.2316 11.0165 46.3319 12.8109 48.6267 12.8109ZM50.6882 59.6803C50.7271 57.9057 49.4046 55.9142 47.0126 55.8945C44.6206 55.8747 43.2981 57.8465 43.2981 59.6409C43.2981 61.4352 44.64 63.3873 47.0126 63.3873C49.3463 63.3675 50.6882 61.4352 50.6882 59.6803ZM7.00917 13.1658C5.41448 13.1658 4.13095 14.4869 4.13095 16.1038C4.13095 17.7206 5.43393 19.0614 7.02862 19.0614C8.62331 19.0614 9.98463 17.6812 9.94573 16.0643C9.92629 14.4475 8.60386 13.1658 7.00917 13.1658ZM54.3637 37.4582C54.3832 35.8216 53.1191 34.5203 51.505 34.5005C49.8714 34.4808 48.5295 35.8019 48.5489 37.4385C48.5489 39.0357 49.8714 40.3765 51.4466 40.3962C53.0413 40.3962 54.3443 39.0751 54.3637 37.4582Z" fill="#02C0D4"/>
</svg>
