<svg width="64" height="29" viewBox="0 0 64 29" fill="none" xmlns="http://www.w3.org/2000/svg">
<path d="M63.2368 19.7433C62.4404 20.5384 61.6243 21.3139 60.8562 22.136C60.4328 22.5907 59.9367 22.485 59.4345 22.4654C59.3736 22.4609 59.316 22.4363 59.2708 22.3953C58.9532 22.1127 59.2487 20.7977 59.5613 20.5175C60.4094 19.7581 61.5172 19.1989 61.3781 17.7132C61.2489 16.3466 61.3498 16.3368 59.9404 16.3368H59.325C57.1278 16.3368 57.129 16.3368 55.6913 14.652C55.5477 14.5054 55.4651 14.31 55.4599 14.1051C55.4599 13.3899 55.4661 12.6746 55.4599 11.9594C55.4599 11.6239 55.6076 11.4789 55.9412 11.4838C56.5037 11.4937 57.0663 11.4838 57.7309 11.4838C57.4441 11.0955 57.1389 11.1864 56.8767 11.1864C53.8068 11.1791 50.7357 11.1729 47.6658 11.1864C47.4436 11.1943 47.2223 11.1556 47.016 11.0728C46.8097 10.9901 46.6231 10.8651 46.4681 10.7059C43.594 7.97038 40.7001 5.25572 37.8247 2.52263C37.6904 2.38837 37.5298 2.28317 37.353 2.21361C37.1761 2.14405 36.9869 2.11161 36.7969 2.11832C26.6641 2.12651 16.5296 2.12651 6.3935 2.11832C5.94422 2.11832 5.69681 2.24121 5.51586 2.67624C4.48805 5.14758 3.42332 7.60294 2.38443 10.0706C2.0484 10.8731 2.26134 11.7272 2.24288 12.5567C2.23549 12.8664 2.51245 12.8713 2.7414 12.8737C3.37655 12.8737 4.01046 12.8872 4.64561 12.8737C5.0555 12.8676 5.24506 13.0409 5.2426 13.4562C5.23686 15.0497 5.23686 16.6436 5.2426 18.2379C5.2426 18.6607 5.05427 18.8118 4.64069 18.8008C3.8886 18.7799 3.13529 18.7946 2.17887 18.7946C2.79433 19.4164 3.27684 19.9326 3.79505 20.402C4.17417 20.7449 4.16433 20.9833 3.79505 21.3397C2.85464 22.254 2.9408 22.1827 1.94869 21.3827C0.608235 20.316 0.14049 19.0613 0.256195 17.358C0.408828 15.1005 0.299277 12.8246 0.288199 10.556C0.286807 10.1278 0.375719 9.70403 0.549151 9.31235C1.74929 6.51412 2.94696 3.71467 4.11386 0.902925C4.33542 0.36712 4.62592 0.186471 5.2069 0.186471C15.9749 0.203675 26.7424 0.203675 37.5096 0.186471C37.741 0.177777 37.9717 0.217696 38.1867 0.303643C38.4017 0.389591 38.5963 0.519651 38.7577 0.685408C41.5888 3.38041 44.4371 6.05083 47.267 8.74214C47.4078 8.88664 47.5774 9.00002 47.7648 9.07496C47.9523 9.1499 48.1534 9.18472 48.3551 9.17717C51.425 9.16365 54.4961 9.17717 57.566 9.15997C57.7982 9.15024 58.0297 9.19142 58.2443 9.28059C58.4589 9.36975 58.6513 9.50476 58.808 9.67611C60.2691 11.1643 61.7622 12.6255 63.2393 14.1002L63.2368 19.7433ZM60.567 14.3189C60.2543 13.9072 60.0229 13.5029 59.6216 13.4587C58.9791 13.3825 58.3193 13.4317 57.6682 13.4587C57.5254 13.4587 57.4934 13.6307 57.5919 13.7438C57.8011 13.9896 57.9833 14.3066 58.3452 14.3189C59.0505 14.3312 59.757 14.3189 60.567 14.3189ZM3.24361 15.8661C3.24361 15.6474 3.23622 15.4852 3.24361 15.3242C3.2633 14.9752 3.08236 14.8719 2.75986 14.8719C2.43736 14.8719 2.20841 14.9334 2.22072 15.3328C2.23673 15.6756 2.23057 16.0197 2.22072 16.3626C2.21457 16.6784 2.38074 16.7804 2.67247 16.794C3.51687 16.8333 3.15375 16.193 3.24361 15.8661Z" fill="white"/>
<path d="M17.7629 18.0695C18.3476 19.2505 18.6984 20.3615 18.6873 21.5793C18.676 22.905 18.2727 24.1978 17.5282 25.2955C16.7836 26.3932 15.731 27.247 14.5023 27.7497C11.9297 28.7783 9.03703 28.1773 7.16359 26.1717C5.21384 24.0912 4.68578 21.6555 5.76528 19.0281C6.8054 16.4953 8.80562 15.0722 11.5567 14.8338C12.9168 14.7221 14.2759 15.0617 15.423 15.7998C15.7828 16.0319 16.2033 16.1529 16.6317 16.1475C26.5389 16.1393 36.4465 16.1393 46.3544 16.1475C46.7828 16.1543 47.2038 16.036 47.5657 15.8071C50.286 14.137 53.895 14.7134 55.9715 17.0016C58.3607 19.6327 58.1872 23.4976 56.1845 25.8018C54.2901 27.9868 51.3913 28.82 48.7498 27.8455C46.1083 26.871 44.2631 24.2731 44.2964 21.5351C44.294 20.5093 44.5379 19.4979 45.0078 18.5857C45.2146 18.1937 45.1752 18.056 44.6964 18.0659C43.612 18.0892 42.5275 18.0732 41.4419 18.0732H17.7629V18.0695ZM12.0035 26.232C12.935 26.2234 13.8431 25.9394 14.613 25.4158C15.3829 24.8923 15.9801 24.1526 16.3291 23.2903C16.6781 22.428 16.7632 21.4817 16.5737 20.5711C16.3843 19.6606 15.9287 18.8265 15.2646 18.1742C14.6005 17.522 13.7577 17.081 12.8426 16.9068C11.9276 16.7327 10.9813 16.8332 10.1235 17.1958C9.26562 17.5584 8.53466 18.1666 8.02295 18.9438C7.51124 19.7209 7.24175 20.6321 7.24853 21.5621C7.25009 22.1815 7.37473 22.7943 7.61521 23.3653C7.85568 23.9362 8.20723 24.4538 8.64948 24.8882C9.09174 25.3225 9.61591 25.6649 10.1916 25.8956C10.7674 26.1262 11.3832 26.2406 12.0035 26.232ZM55.7327 21.5375C55.7349 20.6064 55.4604 19.6956 54.9438 18.9203C54.4273 18.145 53.6919 17.5402 52.8309 17.1823C51.9699 16.8245 51.0219 16.7297 50.1069 16.91C49.1919 17.0904 48.3511 17.5376 47.6908 18.1953C47.0306 18.8529 46.5806 19.6913 46.3978 20.6044C46.2151 21.5175 46.3078 22.4642 46.6642 23.3246C47.0206 24.1851 47.6246 24.9206 48.3999 25.4382C49.1753 25.9557 50.0869 26.232 51.0196 26.232C51.6395 26.2387 52.2544 26.1219 52.8286 25.8885C53.4027 25.6551 53.9245 25.3098 54.3633 24.8727C54.8022 24.4355 55.1493 23.9154 55.3845 23.3428C55.6196 22.7701 55.738 22.1564 55.7327 21.5375Z" fill="white"/>
<path d="M32.5886 11.1913C28.4552 11.1913 24.3218 11.1913 20.1884 11.1913C19.3268 11.1913 19.3132 11.1729 19.5963 10.3888C20.4444 8.05142 21.3073 5.70789 22.1492 3.3619C22.2969 2.94899 22.5185 2.788 22.9543 2.78923C27.5168 2.79988 32.0798 2.79988 36.6432 2.78923C36.8055 2.78563 36.9669 2.8154 37.1173 2.87671C37.2676 2.93802 37.4037 3.02955 37.5171 3.14562C40.1431 5.63457 42.7739 8.11901 45.4097 10.599C45.5476 10.7292 45.8073 10.8447 45.6891 11.0819C45.5993 11.2613 45.3555 11.1839 45.1795 11.1851C40.9805 11.1901 36.7835 11.1921 32.5886 11.1913ZM25.6438 9.18325C26.6851 9.18325 27.7265 9.17588 28.7678 9.18325C29.1543 9.18325 29.3242 9.03578 29.3205 8.64253C29.3098 7.54143 29.3098 6.44032 29.3205 5.33922C29.3205 4.94597 29.1642 4.79604 28.7728 4.79973C27.2415 4.81079 25.7103 4.80833 24.179 4.79973C23.8725 4.79973 23.6866 4.9091 23.5832 5.2065C23.1697 6.37888 22.7499 7.5488 22.3117 8.71258C22.1739 9.08125 22.2699 9.18816 22.6428 9.18325C23.6423 9.17588 24.6431 9.18448 25.6438 9.18325ZM40.8984 9.18325C40.8523 9.09047 40.798 9.00204 40.7359 8.91903C39.3696 7.62622 38.0021 6.33382 36.6333 5.04182C36.5434 4.95871 36.4374 4.89489 36.3218 4.8543C36.2062 4.81372 36.0835 4.79724 35.9612 4.80587C34.6073 4.80587 33.2594 4.82062 31.9079 4.79973C31.434 4.79113 31.3133 4.99267 31.322 5.42524C31.3429 6.44647 31.354 7.46892 31.322 8.49014C31.3035 9.02963 31.4906 9.20045 32.0273 9.19431C34.1555 9.17096 36.285 9.18448 38.4144 9.18448L40.8984 9.18325Z" fill="white"/>
<path d="M31.4856 22.4912H20.9897C20.0899 22.4912 20.0899 22.4912 20.0887 21.5671C20.0936 21.4852 20.0936 21.4032 20.0887 21.3213C20.0123 20.7364 20.2598 20.5496 20.8506 20.5508C27.9496 20.568 35.0479 20.568 42.1453 20.5508C42.7607 20.5508 42.9109 20.7671 42.8924 21.3348C42.8518 22.6252 42.9897 22.4888 41.7342 22.49C38.3196 22.4941 34.9034 22.4945 31.4856 22.4912Z" fill="white"/>
<path d="M10.6142 11.1839C8.54746 11.1839 6.47954 11.1691 4.41284 11.1937C3.84416 11.1998 3.60291 11.0413 3.61891 10.4342C3.65584 9.04432 3.53398 9.17582 4.88305 9.17459C8.40344 9.17459 11.9238 9.1623 15.4442 9.18442C16.0068 9.18442 16.3231 9.05047 16.5434 8.4864C17.1466 6.94535 17.8408 5.44362 18.4649 3.90871C18.6692 3.40363 18.8834 3.24264 19.4102 3.49703C20.6879 4.11148 20.6707 3.78828 20.0848 5.16589C19.3179 6.97115 18.5412 8.77274 17.7977 10.5866C17.6131 11.0339 17.3595 11.2011 16.877 11.1925C14.7894 11.1703 12.7018 11.1839 10.6142 11.1839Z" fill="white"/>
<path d="M7.74784 8.26185C7.17423 8.26185 6.60063 8.25079 6.02457 8.26185C5.66145 8.27045 5.52113 8.11438 5.48789 7.76045C5.3648 6.39759 5.42265 6.2194 6.74711 6.35827C8.36206 6.52663 9.61758 6.09037 10.5469 4.76069C11.5686 3.29706 12.9595 2.74159 14.7197 3.02792C15.1394 3.09551 15.5813 3.04267 16.0072 3.0439C16.31 3.0439 16.4602 3.19506 16.4577 3.49737C16.4559 3.51781 16.4559 3.53837 16.4577 3.55881C16.5808 5.04825 16.5685 5.14165 15.0717 5.02122C13.623 4.89832 12.4708 5.24119 11.6252 6.45658C11.5204 6.58248 11.4051 6.69924 11.2805 6.80559C9.82684 8.26308 9.82684 8.26308 7.74784 8.26185Z" fill="white"/>
<path d="M41.1642 14.2575C39.793 14.2575 38.4205 14.244 37.0505 14.2575C36.568 14.2648 36.4019 14.083 36.4105 13.6098C36.4412 12.1069 36.2468 12.2494 37.7472 12.247C40.2025 12.2412 42.6581 12.2412 45.1142 12.247C45.9549 12.247 45.9549 12.247 45.9574 13.1072C45.9574 14.2476 45.9574 14.2476 44.8496 14.2476L41.1642 14.2575Z" fill="white"/>
<path d="M31.2427 14.2575C30.2728 14.2575 30.2728 14.2575 30.274 13.219C30.274 12.2482 30.274 12.2482 31.3227 12.2519C32.2792 12.2519 32.2792 12.2519 32.2767 13.3345C32.2742 14.2587 32.2742 14.2587 31.2427 14.2575Z" fill="white"/>
<path d="M33.3501 13.2716C33.3501 12.2504 33.3501 12.2504 34.3459 12.2504C35.3417 12.2504 35.3528 12.2504 35.3528 13.2814C35.3528 14.2645 35.3528 14.2645 34.3102 14.2572C33.3501 14.2572 33.3501 14.2572 33.3501 13.2716Z" fill="white"/>
<path d="M15.6018 21.5375C15.6018 23.5124 13.9154 25.1861 11.957 25.1628C9.96912 25.1382 8.32463 23.4644 8.35541 21.497C8.38618 19.5295 10.0381 17.8913 11.9681 17.8975C12.9306 17.9084 13.8503 18.2958 14.5297 18.9764C15.2092 19.657 15.5941 20.5766 15.6018 21.5375ZM13.5892 21.5621C13.6028 20.6158 12.9405 19.9215 12.0075 19.9018C11.5741 19.8967 11.1558 20.0609 10.8419 20.3594C10.528 20.6578 10.3433 21.0669 10.3273 21.4994C10.3236 21.714 10.3624 21.9272 10.4417 22.1267C10.5209 22.3262 10.639 22.508 10.789 22.6617C10.9391 22.8154 11.1182 22.9379 11.3159 23.0221C11.5136 23.1063 11.7261 23.1505 11.941 23.1523C12.1559 23.164 12.3708 23.1313 12.5724 23.0563C12.774 22.9812 12.9579 22.8655 13.1126 22.7162C13.2673 22.5669 13.3895 22.3874 13.4715 22.1888C13.5535 21.9902 13.5936 21.7768 13.5892 21.5621Z" fill="white"/>
<path d="M54.6614 21.5461C54.649 23.5124 52.9492 25.1837 50.9933 25.1616C49.0373 25.1394 47.4039 23.4939 47.383 21.5461C47.3621 19.5983 49.0706 17.8926 51.024 17.8975C52.9775 17.9024 54.6724 19.5921 54.6614 21.5461ZM52.6476 21.5154C52.6521 21.3004 52.6126 21.0868 52.5317 20.8876C52.4507 20.6884 52.33 20.5077 52.1768 20.3566C52.0236 20.2055 51.8412 20.0871 51.6406 20.0087C51.4401 19.9303 51.2257 19.8935 51.0105 19.9006C50.7954 19.9015 50.5826 19.945 50.3844 20.0286C50.1862 20.1121 50.0066 20.234 49.8559 20.3872C49.7051 20.5404 49.5863 20.722 49.5062 20.9213C49.4262 21.1206 49.3865 21.3338 49.3894 21.5486C49.3893 21.7628 49.4323 21.9748 49.5159 22.1721C49.5996 22.3694 49.7221 22.5478 49.8762 22.6969C50.0303 22.8459 50.2129 22.9625 50.413 23.0397C50.6132 23.1169 50.8268 23.1531 51.0413 23.1461C51.9792 23.1449 52.6525 22.4592 52.6476 21.5154Z" fill="white"/>
<path d="M35.1055 6.58432C35.5548 6.58432 36.0053 6.59292 36.4595 6.58432C36.8288 6.57448 36.9519 6.74162 36.9802 7.09677C37.0873 8.56532 37.0824 8.58129 35.6262 8.58006C35.0108 8.58006 34.3953 8.57146 33.7799 8.58006C33.365 8.58006 33.2038 8.40802 33.2112 7.9865C33.2383 6.34591 33.0549 6.61135 34.5504 6.58432C34.735 6.58432 34.9197 6.58432 35.1031 6.58432H35.1055Z" fill="white"/>
</svg>
