<svg width="46" height="48" viewBox="0 0 46 48" fill="none" xmlns="http://www.w3.org/2000/svg">
<path d="M22.9542 11.4109H3.69961C3.03549 11.4109 3.03425 11.4109 3.03425 12.0587C3.03425 15.5816 3.04291 19.1057 3.02436 22.6286C3.02436 23.1018 3.15669 23.2294 3.62293 23.2244C5.70558 23.1996 7.78946 23.2071 9.87211 23.2244C10.2431 23.2244 10.4163 23.1303 10.3804 22.7289C10.3643 22.4203 10.3643 22.111 10.3804 21.8024C10.3915 21.0257 10.7626 20.5191 11.4935 20.2887C11.6715 20.2329 11.8645 20.2267 11.8533 19.9617C11.841 19.7139 11.9065 19.4662 11.606 19.3237C10.2382 18.6598 10.0354 16.9702 10.7861 15.7129C11.2807 14.878 11.8571 14.0877 12.3938 13.2739C12.5645 13.0125 12.6993 13.0187 12.8675 13.2739C13.3993 14.0889 13.9719 14.8842 14.469 15.7141C15.221 16.9776 15.0107 18.6585 13.6466 19.3262C13.3473 19.4724 13.4166 19.7238 13.3993 19.9629C13.3844 20.2305 13.586 20.2329 13.7628 20.2887C14.4802 20.5129 14.8759 21.0443 14.8759 21.8086C14.8759 24.1113 14.8759 26.4141 14.8858 28.7156C14.8858 29.0996 14.7621 29.2284 14.3787 29.2185C13.1531 29.1876 13.3424 29.3535 13.3349 28.1978C13.325 26.2357 13.3226 24.2724 13.3411 22.3103C13.3411 21.8978 13.2175 21.7751 12.8118 21.7875C11.7866 21.8222 11.9214 21.6835 11.9177 22.6757C11.9177 24.6576 11.9053 26.6321 11.9251 28.6103C11.9251 29.06 11.8249 29.2433 11.3376 29.2235C10.2246 29.1777 10.3804 29.3387 10.3717 28.2573C10.3643 27.2837 10.3433 26.3088 10.3816 25.3377C10.4014 24.8422 10.2209 24.7493 9.7707 24.753C7.57922 24.774 5.38898 24.7641 3.1975 24.7617C2.05476 24.7617 1.48464 24.1956 1.4834 23.0597C1.4834 18.2386 1.4834 13.4171 1.4834 8.59527C1.4834 7.45937 2.05229 6.89824 3.19503 6.89452C3.81339 6.89452 4.43175 6.87966 5.05012 6.90072C5.36053 6.91186 5.52255 6.78799 5.65487 6.51796C6.32023 5.15538 7.01527 3.81262 7.67445 2.45128C8.16914 1.42811 8.93714 0.947483 10.0997 0.949961C18.6941 0.96978 27.2881 0.96978 35.8817 0.949961C37.0665 0.949961 37.8333 1.44544 38.3341 2.48348C38.9785 3.81881 39.6661 5.13308 40.3129 6.46841C40.4712 6.79543 40.6666 6.9193 41.0265 6.90319C41.6733 6.87594 42.3226 6.88957 42.9706 6.90319C43.8722 6.91434 44.5029 7.52255 44.5042 8.40946C44.5116 13.3544 44.5116 18.2993 44.5042 23.2442C44.5042 24.1584 43.8734 24.7641 42.9397 24.7666C40.6876 24.7666 38.4343 24.7802 36.1822 24.7592C35.7308 24.7592 35.601 24.893 35.6121 25.3364C35.6405 26.4636 35.6121 27.5933 35.6282 28.7206C35.6343 29.1033 35.5045 29.2346 35.1236 29.2247C33.8955 29.1938 34.0847 29.3597 34.0785 28.2053C34.0674 26.2431 34.0649 24.281 34.0785 22.3177C34.0785 21.9089 33.9549 21.7801 33.5517 21.7937C32.5252 21.8284 32.6588 21.6897 32.6563 22.6806C32.6501 24.6626 32.6427 26.6371 32.6563 28.6153C32.6563 29.0624 32.5611 29.2495 32.0701 29.2346C30.9571 29.1888 31.1079 29.3498 31.1042 28.2697C31.0968 26.1374 31.0968 24.0052 31.1042 21.873C31.1042 21.0294 31.4653 20.5364 32.2556 20.2912C32.4238 20.2379 32.597 20.2193 32.5809 19.9852C32.5648 19.7511 32.6687 19.4897 32.3879 19.3658C30.8915 18.6982 30.7777 16.7311 31.6818 15.4404C32.1703 14.7455 32.6316 14.0307 33.0941 13.3185C33.2734 13.0422 33.4144 12.9741 33.6222 13.2974C34.1243 14.0766 34.6573 14.8346 35.1533 15.6175C35.9522 16.8798 35.7815 18.6759 34.3556 19.3435C34.0526 19.4848 34.154 19.7585 34.1429 19.9926C34.1317 20.2267 34.3284 20.2305 34.4879 20.2812C35.2151 20.5092 35.601 21.0331 35.617 21.7925C35.6232 22.1467 35.6269 22.5035 35.617 22.8578C35.6109 23.1179 35.7222 23.2133 35.9769 23.2133C38.1832 23.2083 40.3896 23.2083 42.5959 23.2133C42.8877 23.2133 42.9669 23.082 42.9669 22.8169C42.9669 19.1387 42.9669 15.461 42.9669 11.7837C42.9669 11.5013 42.8593 11.396 42.5835 11.4047C42.1828 11.417 41.7821 11.4047 41.3802 11.4047L22.9542 11.4109ZM22.9802 6.89452H38.1585C38.7534 6.89452 38.7546 6.89452 38.4825 6.34701C37.952 5.28296 37.409 4.22511 36.8946 3.15362C36.6806 2.71017 36.3739 2.50578 35.8805 2.50578C27.2893 2.51073 18.6974 2.51073 10.1046 2.50578C9.89545 2.49067 9.68691 2.54252 9.50908 2.65384C9.33125 2.76516 9.19333 2.9302 9.11523 3.12513C8.59086 4.21024 8.04176 5.28173 7.50749 6.36064C7.24036 6.89576 7.24159 6.89824 7.84635 6.89824L22.9802 6.89452ZM22.9975 9.86742H40.6332C41.2652 9.86742 41.8984 9.86742 42.5303 9.86742C42.6651 9.86742 42.8618 9.91202 42.9013 9.76461C43.0098 9.39211 43.0166 8.99733 42.9211 8.62128C42.8432 8.30665 42.4957 8.45777 42.2706 8.45777C29.4186 8.45034 16.5665 8.44827 3.71445 8.45158C3.57594 8.45158 3.43619 8.45158 3.29768 8.45777C3.22718 8.46521 3.11217 8.4937 3.09732 8.53829C2.97991 8.92272 2.97135 9.33224 3.07259 9.72125C3.13443 9.98386 3.44361 9.86371 3.6452 9.86494C10.0984 9.86577 16.5492 9.86618 22.9975 9.86618V9.86742ZM12.6362 17.9983C12.7359 17.9927 12.8333 17.9663 12.9222 17.9208C13.0112 17.8753 13.0896 17.8116 13.1525 17.7339C13.2154 17.6562 13.2613 17.5662 13.2874 17.4697C13.3135 17.3731 13.3192 17.2722 13.304 17.1733C13.2583 16.746 13.0567 16.3905 12.8093 16.0473C12.698 15.89 12.5941 15.8343 12.4581 16.0226C12.1959 16.388 11.9745 16.7732 11.9424 17.234C11.9362 17.3302 11.9494 17.4266 11.9812 17.5176C12.013 17.6086 12.0628 17.6922 12.1275 17.7635C12.1922 17.8348 12.2706 17.8924 12.358 17.9327C12.4454 17.973 12.54 17.9953 12.6362 17.9983ZM34.0526 17.3913C34.0266 16.7955 33.8052 16.4004 33.5294 16.0201C33.4218 15.8702 33.3192 15.8603 33.2067 16.0201C32.942 16.3843 32.7206 16.7633 32.6848 17.2291C32.6768 17.3249 32.6882 17.4213 32.7183 17.5126C32.7483 17.6039 32.7964 17.6883 32.8596 17.7606C32.9228 17.8329 32.9999 17.8918 33.0863 17.9337C33.1727 17.9756 33.2666 17.9997 33.3625 18.0045C33.7261 18.0008 34.0513 17.6601 34.0526 17.3913Z" fill="white"/>
<path d="M22.9605 47.0162H0.743959C0.00192289 47.0162 0.00192287 47.0162 0.00192287 46.2928C0.00192287 45.3861 -0.0796998 45.4715 0.820637 45.4678C1.69995 45.4678 2.57926 45.4542 3.45857 45.4678C3.78012 45.4752 3.92482 45.3539 4.01015 45.0504C4.2204 44.2923 4.4529 43.5392 4.69159 42.7885C5.27409 40.9602 6.41311 39.5963 8.13092 38.7416C8.46731 38.5744 8.47721 38.4778 8.23976 38.1929C7.72957 37.5741 7.43363 36.8062 7.39639 36.0045C7.35915 35.2029 7.58261 34.4107 8.03322 33.7472C8.48421 33.0843 9.13451 32.5827 9.88959 32.3154C10.6447 32.0481 11.4652 32.0289 12.2319 32.2607C12.9985 32.492 13.6701 32.9648 14.1471 33.6088C14.6241 34.2528 14.881 35.0337 14.8797 35.8356C14.9031 36.7127 14.5998 37.5671 14.0289 38.2325C13.8347 38.4629 13.7877 38.5732 14.1093 38.728C15.2478 39.2653 16.2047 40.1243 16.8622 41.1992C17.0391 41.4878 17.1256 41.4556 17.2889 41.1906C17.9499 40.1167 18.9068 39.2572 20.0443 38.7156C20.3139 38.5918 20.3411 38.4988 20.142 38.2561C19.0846 36.9604 18.9585 35.3463 19.7772 33.9342C20.1648 33.2868 20.7372 32.7706 21.4206 32.4522C22.104 32.1338 22.8669 32.0279 23.611 32.148C24.3717 32.2701 25.0756 32.6263 25.625 33.1673C26.1744 33.7082 26.542 34.407 26.6769 35.1667C26.8846 36.2816 26.641 37.327 25.894 38.2028C25.6467 38.4988 25.6937 38.5917 26.0177 38.7503C27.1233 39.2834 28.053 40.1231 28.6964 41.1695C28.8782 41.4631 28.9673 41.4668 29.1503 41.1695C29.8045 40.1107 30.749 39.2627 31.8711 38.7268C32.1469 38.5917 32.2075 38.51 31.9837 38.24C31.4755 37.6493 31.1681 36.9121 31.1061 36.1349C31.044 35.3577 31.2305 34.5808 31.6386 33.9169C32.0255 33.2783 32.5926 32.7689 33.2684 32.453C33.9441 32.137 34.6982 32.0288 35.4354 32.1418C36.1971 32.2589 36.9037 32.6102 37.4576 33.1469C38.0115 33.6837 38.3852 34.3795 38.5272 35.1382C38.6465 35.6771 38.6374 36.2366 38.5008 36.7714C38.3641 37.3061 38.1037 37.8012 37.7406 38.2164C37.5081 38.4889 37.544 38.588 37.8494 38.7354C39.5809 39.5963 40.7298 40.9738 41.3123 42.8232C41.5497 43.5738 41.781 44.327 41.9937 45.0851C42.0741 45.3724 42.2188 45.4802 42.5181 45.4765C43.5075 45.4616 44.4969 45.4765 45.48 45.4653C45.8436 45.4591 46.0106 45.5521 45.9995 45.9534C45.9661 47.2107 46.1417 47.015 44.9507 47.0162C37.6202 47.0236 30.2902 47.0236 22.9605 47.0162ZM22.9988 45.4666C24.7303 45.4666 26.453 45.4666 28.1807 45.4728C28.501 45.4728 28.5938 45.3947 28.4887 45.0739C28.2624 44.3852 28.0855 43.6791 27.8431 42.9966C27.132 40.9837 25.147 39.605 22.9976 39.605C20.8482 39.605 18.8595 40.9911 18.1521 42.9966C17.9159 43.6655 17.7489 44.3592 17.5201 45.0306C17.3965 45.4022 17.5016 45.4765 17.8627 45.474C19.5744 45.4591 21.286 45.4666 22.9988 45.4666ZM10.5883 45.4666C12.1429 45.4666 13.6987 45.4666 15.2545 45.4666C15.4177 45.4666 15.6539 45.5409 15.7219 45.3625C15.9421 44.7791 16.3057 44.1907 16.1647 43.554C15.67 41.3082 13.6739 39.6843 11.2289 39.6261C8.97066 39.5728 7.07847 40.9057 6.30304 43.0028C6.0557 43.6667 5.89987 44.3654 5.66984 45.0343C5.54617 45.4059 5.65252 45.4802 6.01365 45.4765C7.53729 45.4579 9.06342 45.4666 10.5883 45.4666ZM35.3426 45.4666C36.8984 45.4666 38.4542 45.4591 40.01 45.4728C40.3513 45.4728 40.4478 45.3923 40.3316 45.0504C40.1188 44.4223 39.9605 43.7782 39.7441 43.1502C39.4886 42.3825 39.0569 41.6855 38.4836 41.1153C37.9102 40.5451 37.2114 40.1176 36.4431 39.8672C35.6748 39.6167 34.8586 39.5502 34.0601 39.6731C33.2615 39.7961 32.5029 40.1049 31.8451 40.5749C30.9139 41.2364 30.3042 42.1369 29.9072 43.2158C29.6598 43.9008 30.016 44.4446 30.131 45.0491C30.1966 45.3923 30.3932 45.4765 30.721 45.4728C32.2619 45.4591 33.8016 45.4666 35.3426 45.4666ZM13.3289 35.8715C13.345 34.7034 12.3271 33.6766 11.1522 33.6728C10.5834 33.6832 10.0402 33.9113 9.634 34.3103C9.22783 34.7093 8.98958 35.2489 8.96819 35.8183C8.92861 36.9752 9.93283 38.0108 11.1213 38.0405C12.2814 38.069 13.3128 37.0558 13.3289 35.8715ZM22.9605 38.0405C24.1144 38.0802 25.1507 37.0719 25.178 35.8827C25.2039 34.7344 24.2479 33.7373 23.0582 33.6741C21.913 33.6121 20.8704 34.6056 20.8185 35.8071C20.7678 36.9591 21.7658 37.9996 22.9605 38.0405ZM34.8405 33.6728C33.6631 33.6728 32.6478 34.7084 32.6663 35.874C32.6822 36.4438 32.9154 36.9858 33.3179 37.3888C33.7204 37.7917 34.2617 38.0249 34.8306 38.0405C35.9968 38.0579 37.0233 37.0396 37.027 35.8616C37.0165 35.2842 36.7828 34.7334 36.3749 34.3251C35.9671 33.9168 35.417 33.683 34.8405 33.6728Z" fill="white"/>
<path d="M22.9805 26.2467C21.839 26.2467 20.6975 26.2553 19.5573 26.2467C19.1862 26.2467 19.1108 26.3421 19.2951 26.6678C19.4794 26.9936 19.6154 27.3008 19.7737 27.6192C19.825 27.6949 19.8635 27.7786 19.8875 27.8669C19.953 28.5383 19.279 28.3711 18.9871 28.6436C18.8264 28.7935 18.6062 28.8504 18.4615 28.5569C17.8893 27.3941 17.3122 26.2335 16.7301 25.0749C16.5805 24.7751 16.698 24.6946 16.9898 24.7032C17.7603 24.7032 18.532 24.6896 19.3025 24.7107C19.6661 24.7206 19.7143 24.5942 19.6191 24.2759C19.2889 23.1672 18.9859 22.0462 18.6545 20.9413C18.5493 20.5907 18.6025 20.4173 18.9921 20.3145C20.2548 19.9813 19.9926 19.907 20.3352 21.0441C20.6604 22.1218 20.977 23.2044 21.2553 24.2957C21.3641 24.7181 21.6201 24.7231 21.9454 24.7032C22.3238 24.6809 22.2249 24.3948 22.2249 24.1867C22.2311 22.0809 22.241 19.985 22.2249 17.8841C22.2249 17.4258 22.3387 17.2574 22.8173 17.2772C23.9204 17.3218 23.7733 17.162 23.7782 18.2471C23.7856 20.229 23.7782 22.201 23.7844 24.178C23.7844 24.3849 23.6768 24.6735 24.0552 24.702C24.3743 24.7231 24.639 24.7305 24.7503 24.3044C25.083 23.0359 25.4725 21.7824 25.8176 20.5164C25.914 20.1634 26.0427 20.0284 26.4298 20.1448C27.6937 20.5313 27.5057 20.3071 27.1953 21.4603C26.9479 22.398 26.6771 23.3345 26.3902 24.2635C26.2776 24.6351 26.3766 24.7206 26.7402 24.7094C27.4958 24.6884 28.2515 24.7094 29.0071 24.7008C29.3472 24.7008 29.4165 24.8098 29.2643 25.112C28.693 26.2417 28.1282 27.3747 27.57 28.511C27.4463 28.7588 27.3115 28.812 27.0617 28.6807C25.7458 27.9945 25.914 28.3203 26.499 27.0915C26.9022 26.2467 26.9146 26.2516 25.9957 26.2516L22.9805 26.2467Z" fill="white"/>
<path d="M18.0134 29.1503C19.2179 29.18 20.4868 30.0236 21.2721 31.5187C21.5677 32.0811 20.7898 32.0761 20.5388 32.3623C20.3978 32.5258 20.1677 32.6881 19.9748 32.3623C19.8709 32.1913 19.7559 32.0254 19.6384 31.8668C18.5254 30.332 16.3982 30.3258 15.2666 31.8519C14.7125 32.5952 14.7125 32.5952 13.9383 32.0823C13.4288 31.7442 13.4288 31.7442 13.7862 31.2066C14.7162 29.8093 15.9146 29.1441 18.0134 29.1503Z" fill="white"/>
<path d="M28.5062 29.1342C30.3044 29.1726 31.5313 30.0297 32.3945 31.4877C32.4971 31.6624 32.5182 31.7999 32.3228 31.9138C32.2964 31.9297 32.2712 31.9475 32.2473 31.9671C31.3581 32.6447 31.3581 32.6447 30.6792 31.7776C29.555 30.3419 27.4859 30.3716 26.389 31.8383C25.8188 32.6025 25.8324 32.5815 25.0211 32.086C24.6254 31.8383 24.587 31.6611 24.8468 31.2635C25.731 29.9034 26.943 29.1713 28.5062 29.1342Z" fill="white"/>
</svg>
