<svg width="47" height="47" viewBox="0 0 47 47" fill="none" xmlns="http://www.w3.org/2000/svg">
<path d="M0.73877 24.5243C1.0362 24.2436 1.34803 24.0205 1.77379 24.2736C2.09161 24.4607 2.1192 24.7641 2.1192 25.0928C2.1192 28.4294 2.1192 31.7656 2.1192 35.1014C2.1192 38.2582 2.12879 41.4149 2.1096 44.5764C2.1096 45.031 2.22954 45.1557 2.68768 45.1557C16.7055 45.1437 30.7232 45.1405 44.741 45.1461C45.3263 45.1461 45.3275 45.1461 45.3275 44.5464C45.3275 39.7742 45.3215 35.0019 45.3371 30.2296C45.3371 29.7679 45.2015 29.6419 44.753 29.6515C43.4817 29.6791 42.2092 29.6647 40.9379 29.6599C40.1763 29.6599 39.9425 29.4201 39.9413 28.6717C39.9413 25.2463 39.9413 21.8205 39.9413 18.3943C39.9413 17.6615 40.1751 17.4217 40.9007 17.4193C42.2032 17.4133 43.5045 17.4025 44.8058 17.4193C45.2255 17.4265 45.3347 17.2849 45.3347 16.8771C45.3219 12.0605 45.3219 7.24347 45.3347 2.42604C45.3347 2.02665 45.2147 1.91631 44.8214 1.91991C42.936 1.9367 41.0519 1.94029 39.1665 1.91991C38.73 1.91391 38.6484 2.07582 38.6496 2.46681C38.6608 7.53931 38.6632 12.611 38.6568 17.6819C38.6568 25.1483 38.6568 32.614 38.6568 40.0788C38.6568 41.0119 38.5045 41.1582 37.5558 41.1582H9.86207C8.94699 41.1582 8.78268 40.9999 8.78268 40.0944C8.78268 27.6018 8.78268 15.1097 8.78268 2.61793C8.78268 1.9271 8.78268 1.9259 8.11225 1.9259C6.28687 1.9259 4.46269 1.9379 2.63731 1.91751C2.22234 1.91751 2.10481 2.03744 2.10481 2.45002C2.1168 8.89779 2.1196 15.346 2.1132 21.7945C2.11821 21.9589 2.11421 22.1235 2.10121 22.2875C2.09026 22.4164 2.04201 22.5394 1.96237 22.6414C1.88272 22.7434 1.77511 22.8201 1.65266 22.862C1.25928 23.0227 1.00022 22.7864 0.73877 22.5537V0.553833H46.3445C46.6647 0.769718 46.7391 1.07795 46.7391 1.44856C46.7343 16.1711 46.7343 30.8937 46.7391 45.6162C46.7391 46.3443 46.5328 46.5494 45.8048 46.5505C43.646 46.5505 41.4912 46.5505 39.3404 46.5505C26.8186 46.5505 14.296 46.5505 1.77259 46.5505C1.37082 46.5505 0.98943 46.5434 0.743567 46.1572L0.73877 24.5243ZM23.7659 12.7058C19.4267 12.7058 15.0876 12.7058 10.7484 12.6974C10.3238 12.6974 10.1871 12.8053 10.1871 13.2467C10.1999 20.997 10.1999 28.7476 10.1871 36.4987C10.1871 36.9617 10.3238 37.0708 10.7712 37.0708C19.4063 37.0572 28.0415 37.0572 36.6767 37.0708C37.1241 37.0708 37.262 36.9617 37.262 36.4975C37.2476 28.7624 37.244 21.0269 37.2512 13.2911C37.2512 12.707 37.2512 12.7058 36.6515 12.7058H23.7659ZM23.7659 1.9319C19.4123 1.9319 15.0584 1.9295 10.704 1.9247C10.3166 1.9247 10.1775 2.02545 10.1883 2.42844C10.2135 3.4323 10.2135 4.43377 10.1895 5.43523C10.1811 5.81543 10.3166 5.91498 10.6812 5.91498C12.0005 5.89699 13.3197 5.90778 14.6318 5.90778C21.9781 5.90778 29.3244 5.91098 36.6707 5.91738C37.1181 5.91738 37.2704 5.80943 37.256 5.34408C37.22 4.40258 37.2464 3.45869 37.2452 2.51599C37.2452 1.9319 37.2452 1.9307 36.6455 1.9307L23.7659 1.9319ZM23.6987 11.2953H36.7187C36.9873 11.2953 37.2644 11.3529 37.2572 10.9151C37.238 9.83569 37.2452 8.75627 37.2572 7.68404C37.2572 7.41178 37.1528 7.31583 36.8854 7.31583C34.2229 7.32143 31.5604 7.32143 28.8978 7.31583C28.6064 7.31583 28.4961 7.42378 28.5021 7.71162C28.5141 8.20456 28.5165 8.6987 28.5021 9.19163C28.4841 9.74934 28.2142 10.0096 27.6625 10.0108C25.044 10.0108 22.4263 10.0108 19.8093 10.0108C19.2516 10.0108 18.9842 9.74814 18.9698 9.19044C18.9542 8.71069 18.9506 8.23095 18.9698 7.7512C18.983 7.41898 18.8583 7.30984 18.5272 7.31104C15.8943 7.32063 13.2614 7.32063 10.6284 7.31104C10.3178 7.31104 10.2075 7.41418 10.2123 7.72721C10.2255 8.72868 10.2423 9.73135 10.2123 10.7328C10.1955 11.2042 10.361 11.3025 10.8024 11.3013C15.084 11.2893 19.392 11.2953 23.6987 11.2953ZM23.7215 38.4716H10.8887C10.7544 38.4716 10.6201 38.4716 10.4857 38.4716C10.3778 38.4716 10.2459 38.4848 10.2327 38.6096C10.1835 38.949 10.1211 39.316 10.2543 39.6254C10.3622 39.8761 10.686 39.7454 10.9115 39.7454C19.4555 39.751 27.9991 39.751 36.5424 39.7454C36.6767 39.7454 36.8122 39.7454 36.9466 39.7454C37.0365 39.7454 37.1564 39.7526 37.1864 39.6638C37.2943 39.321 37.3026 38.9546 37.2104 38.6072C37.154 38.3673 36.8782 38.468 36.6983 38.468C32.3703 38.468 28.0447 38.4692 23.7215 38.4716ZM41.3517 23.5372C41.3517 24.9273 41.3637 26.3185 41.3445 27.7098C41.3445 28.0876 41.4716 28.2015 41.8362 28.1955C42.8533 28.1763 43.8751 28.1799 44.8873 28.1955C45.2123 28.1955 45.3359 28.096 45.3347 27.7578C45.3243 24.9464 45.3243 22.1347 45.3347 19.3226C45.3347 18.9856 45.2147 18.8801 44.8885 18.8849C43.8571 18.8993 42.8245 18.9029 41.793 18.8849C41.4213 18.8777 41.3433 19.0348 41.3469 19.3646C41.3565 20.7547 41.3481 22.1423 41.3481 23.5372H41.3517ZM23.7659 7.31943C22.7933 7.31943 21.8218 7.33023 20.8503 7.31943C20.5133 7.31943 20.3814 7.43937 20.415 7.76439C20.4264 7.86843 20.4264 7.97339 20.415 8.07743C20.3646 8.48041 20.5157 8.62314 20.9391 8.61714C22.6877 8.59555 24.4375 8.61714 26.1874 8.60635C27.0785 8.60635 27.0113 8.75747 27.0269 7.76679C27.0341 7.39499 26.8758 7.31463 26.5472 7.32063C25.6213 7.32903 24.6942 7.31823 23.7659 7.31943Z" fill="white"/>
<path d="M23.7098 35.778C19.1835 35.778 15.4668 32.4078 14.9703 27.8862C14.8125 26.4383 15.0268 24.9741 15.5927 23.6321C16.4946 21.434 17.4093 19.2404 18.3368 17.0512C18.8165 15.9238 19.6189 15.6707 20.6719 16.3219C20.931 16.4827 21.0521 16.4227 21.2188 16.2104C21.5954 15.7307 21.9996 15.2653 22.3858 14.7892C23.2853 13.6822 24.1632 13.6881 25.0711 14.8072C25.4572 15.2869 25.8602 15.7463 26.2392 16.2272C26.3939 16.4251 26.5103 16.4803 26.7525 16.3339C27.8655 15.6635 28.6331 15.9178 29.132 17.1135C30.0998 19.4307 31.1361 21.7239 32.002 24.0782C33.9041 29.2511 30.462 34.9037 25.0051 35.6988C24.5755 35.7533 24.1428 35.7797 23.7098 35.778ZM31.0641 26.9027C31.0793 26.4525 31.039 26.0022 30.9442 25.5618C30.8437 25.0479 30.6877 24.5464 30.4788 24.0662C29.6793 22.1472 28.8773 20.2311 28.073 18.3177C27.7132 17.4469 27.7132 17.4481 26.9192 17.9519C26.3735 18.2997 26.0509 18.2517 25.6407 17.7576C25.0854 17.1051 24.5314 16.4587 24.012 15.7858C23.7722 15.4692 23.6379 15.5196 23.4208 15.8026C23.0022 16.3471 22.5537 16.8689 22.1111 17.3966C21.2716 18.3992 21.226 18.4124 20.1442 17.688C19.854 17.4925 19.7172 17.4829 19.5685 17.8439C18.6774 20.0148 17.7084 22.1544 16.8724 24.3457C14.866 29.5989 19.1032 34.8065 24.3802 34.3004C28.2133 33.937 31.0629 30.821 31.0641 26.9039V26.9027Z" fill="white"/>
<path d="M44.0349 20.8626C44.0271 20.9999 43.979 21.132 43.8966 21.2422C43.8142 21.3524 43.7012 21.4359 43.5716 21.4822C43.4421 21.5286 43.3017 21.5358 43.1681 21.5028C43.0345 21.4699 42.9136 21.3984 42.8204 21.2971C42.7272 21.1959 42.6659 21.0694 42.6441 20.9336C42.6223 20.7977 42.641 20.6584 42.6979 20.5331C42.7548 20.4078 42.8474 20.3021 42.964 20.2291C43.0806 20.156 43.2162 20.119 43.3537 20.1225C43.5414 20.1325 43.7178 20.2155 43.8451 20.3538C43.9724 20.4921 44.0405 20.6747 44.0349 20.8626Z" fill="white"/>
<path d="M44.0341 23.5158C44.0343 23.6535 43.9939 23.7883 43.9179 23.9031C43.8419 24.018 43.7337 24.108 43.6068 24.1617C43.48 24.2154 43.3401 24.2305 43.2047 24.2051C43.0693 24.1798 42.9444 24.115 42.8456 24.019C42.7468 23.923 42.6785 23.8 42.6493 23.6654C42.62 23.5308 42.6311 23.3906 42.6812 23.2622C42.7312 23.1339 42.818 23.0231 42.9306 22.9439C43.0433 22.8646 43.1768 22.8203 43.3145 22.8165C43.5019 22.8165 43.6819 22.8895 43.8163 23.02C43.9507 23.1506 44.0288 23.3285 44.0341 23.5158Z" fill="white"/>
<path d="M44.0346 26.2345C44.0297 26.3721 43.9843 26.5051 43.9042 26.6171C43.8241 26.729 43.7128 26.8148 43.5841 26.8638C43.4555 26.9129 43.3153 26.9229 43.181 26.8927C43.0467 26.8625 42.9243 26.7934 42.8291 26.6941C42.7338 26.5947 42.67 26.4695 42.6455 26.334C42.621 26.1986 42.6369 26.0589 42.6913 25.9325C42.7457 25.8061 42.8362 25.6985 42.9514 25.6231C43.0666 25.5478 43.2014 25.5081 43.339 25.5089C43.5267 25.5152 43.7046 25.5946 43.8345 25.7301C43.9645 25.8657 44.0363 26.0467 44.0346 26.2345Z" fill="white"/>
<path d="M29.1387 28.2675C29.1387 30.4624 26.9512 32.8923 24.2671 33.0746C21.2435 33.2809 18.683 31.2611 18.3304 28.3575C18.1373 26.7647 18.5786 25.3399 19.6089 24.1009C20.7374 22.7457 21.8576 21.382 22.9826 20.0231C23.5007 19.3982 23.942 19.3922 24.4494 20.0099C25.5847 21.3796 26.7181 22.7509 27.8495 24.1237C28.6986 25.1516 29.1543 26.3246 29.1387 28.2675ZM27.7235 27.8645C27.6744 26.8055 27.4837 26.0055 26.9536 25.3399C25.9809 24.1261 24.9795 22.9412 23.9984 21.7298C23.7885 21.4707 23.6386 21.4899 23.4359 21.7382C22.4896 22.8956 21.5242 24.0386 20.5863 25.2032C19.8979 26.0583 19.67 27.0466 19.7708 28.1428C19.9279 29.8447 21.4582 31.7301 23.8137 31.6473C26.0529 31.5682 27.7487 29.7667 27.7235 27.8645Z" fill="white"/>
<path d="M26.444 27.7289C26.4308 29.2365 25.1991 30.4071 23.6459 30.3903C22.1444 30.3735 20.9774 29.1346 20.9978 27.5802C21.017 26.0918 22.2379 24.9308 23.7719 24.9416C25.2878 24.9536 26.4584 26.1757 26.444 27.7289ZM25.0264 27.651C25.0144 26.9781 24.3835 26.3557 23.7167 26.3592C23.0499 26.3628 22.4202 26.9901 22.4142 27.6594C22.4082 28.3286 23.0715 28.9942 23.7479 28.9727C24.4243 28.9511 25.0396 28.313 25.0264 27.651Z" fill="white"/>
</svg>
