<svg width="12" height="22" viewBox="0 0 12 22" fill="none" xmlns="http://www.w3.org/2000/svg">
<path opacity="0.8" d="M3.09023 12.4253C2.97627 12.4253 2.88242 12.4253 2.79528 12.4253C2.08473 12.4253 1.37418 12.4253 0.663628 12.4253C0.113956 12.4253 0 12.3113 0 11.7617C0 10.8098 0 9.85791 0 8.89934C0 8.79879 0.00670331 8.69824 0.0201099 8.59769C0.0536265 8.36978 0.147473 8.27593 0.375385 8.24241C0.462529 8.22901 0.556375 8.22901 0.650221 8.22901C1.36077 8.22901 2.07132 8.22901 2.78187 8.22901C2.87572 8.22901 2.96286 8.22901 3.09023 8.22901C3.09023 8.12176 3.09023 8.03461 3.09023 7.94747C3.09023 7.18329 3.08352 6.42582 3.09693 5.66164C3.11034 4.9645 3.2377 4.28076 3.50583 3.63724C4.0555 2.30328 5.04089 1.45196 6.41507 1.04976C6.8709 0.915694 7.34013 0.835255 7.82277 0.835255C8.73442 0.835255 9.64607 0.828551 10.5577 0.835255C10.9398 0.835255 11.0739 0.969321 11.0739 1.35141C11.0806 2.32339 11.0806 3.28867 11.0739 4.26065C11.0739 4.63603 10.9465 4.7768 10.5577 4.78351C9.87398 4.80362 9.18354 4.79691 8.4998 4.81032C8.36573 4.81032 8.23167 4.83043 8.10431 4.85724C7.73562 4.93768 7.52782 5.179 7.46079 5.54098C7.44068 5.64823 7.42727 5.75549 7.42727 5.86274C7.42727 6.5934 7.42727 7.31736 7.42727 8.04802C7.42727 8.08154 7.43397 8.11505 7.44068 8.17538C7.53452 8.17538 7.62167 8.17538 7.70881 8.17538C8.56683 8.17538 9.43156 8.17538 10.2896 8.17538C10.846 8.17538 10.9666 8.29604 10.9666 8.85242C10.9666 9.8311 10.9666 10.8098 10.9666 11.7885C10.9666 12.2778 10.8594 12.3918 10.3566 12.3918C9.47848 12.3918 8.60035 12.3918 7.72222 12.3918C7.62837 12.3918 7.54123 12.3918 7.41386 12.3918C7.41386 12.5057 7.41386 12.6063 7.41386 12.7001C7.41386 15.3144 7.41386 17.9354 7.41386 20.5497C7.41386 20.6771 7.41386 20.7977 7.40716 20.9251C7.38705 21.1865 7.2865 21.2938 7.02507 21.3407C6.93793 21.3541 6.84408 21.3608 6.75024 21.3608C5.73804 21.3608 4.72584 21.3608 3.71364 21.3608C3.16396 21.3608 3.07682 21.1463 3.07682 20.7173C3.08352 18.0561 3.07682 15.4016 3.07682 12.7403C3.09023 12.6465 3.09023 12.5459 3.09023 12.4253Z" fill="white"/>
</svg>
