<svg width="22" height="21" viewBox="0 0 22 21" fill="none" xmlns="http://www.w3.org/2000/svg">
<path opacity="0.8" d="M12.3584 20.5284C10.9322 20.5284 9.53287 20.5284 8.12012 20.5284C8.12012 15.9687 8.12012 11.4158 8.12012 6.84273C9.45922 6.84273 10.7983 6.84273 12.1709 6.84273C12.1709 7.44533 12.1709 8.05462 12.1709 8.684C12.2245 8.65052 12.2513 8.64383 12.2646 8.63044C13.1618 7.1909 14.4943 6.55483 16.148 6.50126C17.0921 6.47448 18.0161 6.5883 18.8798 6.99673C20.0047 7.52568 20.6273 8.44966 20.9755 9.60798C21.25 10.5253 21.3505 11.476 21.3572 12.4268C21.3772 15.0648 21.3705 17.7096 21.3705 20.3476C21.3705 20.3878 21.3639 20.4279 21.3639 20.4815C19.9511 20.4815 18.5517 20.4815 17.1122 20.4815C17.1122 20.3878 17.1122 20.294 17.1122 20.2003C17.1122 17.964 17.1189 15.721 17.1055 13.4847C17.0988 12.9758 17.0653 12.467 16.9716 11.9648C16.7105 10.5654 15.7999 10.0901 14.4943 10.2441C13.3024 10.3847 12.653 11.081 12.4655 12.3665C12.3986 12.8352 12.3651 13.3173 12.3651 13.786C12.3517 15.9219 12.3584 18.0644 12.3584 20.2003C12.3584 20.3074 12.3584 20.4012 12.3584 20.5284Z" fill="white"/>
<path opacity="0.8" d="M1.18311 6.84277C2.60256 6.84277 4.00192 6.84277 5.41467 6.84277C5.41467 11.4091 5.41467 15.9554 5.41467 20.5217C4.00192 20.5217 2.60256 20.5217 1.18311 20.5217C1.18311 15.9621 1.18311 11.4158 1.18311 6.84277Z" fill="white"/>
<path opacity="0.8" d="M5.75603 2.45738C5.76272 3.81657 4.65796 4.94811 3.31216 4.9548C1.95967 4.9615 0.828125 3.82996 0.828125 2.46407C0.828125 1.12497 1.93289 0.0135115 3.27868 0.000120463C4.63787 -0.0132706 5.74933 1.09149 5.75603 2.45738Z" fill="white"/>
</svg>
