<svg width="61" height="64" viewBox="0 0 61 64" fill="none" xmlns="http://www.w3.org/2000/svg">
<g clip-path="url(#clip0_381_40)">
<path d="M48.9584 47.8913C49.1322 46.3362 49.5116 44.8114 50.0865 43.3574C50.3584 42.6699 50.6791 42.0029 51.046 41.3616C51.2719 40.9727 51.5077 40.6167 52.0283 40.6777C52.549 40.7386 52.7029 41.1606 52.7995 41.5907C53.1831 43.3955 53.437 45.2257 53.5592 47.0673C53.5854 47.4101 53.5789 47.7562 53.7426 48.1352C54.6316 47.354 55.4929 46.6025 56.4883 46.0389C56.9511 45.7785 57.4216 45.5323 57.8997 45.3005C58.3287 45.0912 58.774 45.0039 59.126 45.4357C59.4781 45.8675 59.2685 46.2383 59.0098 46.614C58.1273 47.9012 57.2808 49.2098 56.6897 50.665C56.6373 50.7952 56.5997 50.9303 56.5538 51.0671C56.7831 51.1907 56.9255 51.0259 57.0794 50.9584C57.9731 50.5505 58.9232 50.2821 59.8972 50.1623C60.3131 50.1162 60.6209 50.253 60.8092 50.6271C60.9975 51.0012 60.8419 51.3176 60.5849 51.5747C60.1657 51.995 59.7155 52.3856 59.2898 52.7993C56.955 55.0637 56.4065 57.8935 56.7356 61.0017C56.77 61.3198 56.9222 61.4237 57.2153 61.4171C57.5427 61.4024 57.8707 61.4068 58.1977 61.4302C58.643 61.4682 58.9214 61.7285 58.941 62.1818C58.9582 62.3702 58.9018 62.558 58.7838 62.7053C58.6659 62.8527 58.4956 62.948 58.309 62.9712C58.0293 63.0272 57.7445 63.0537 57.4593 63.0503C38.9992 63.0503 20.5382 63.0503 2.07596 63.0503C1.83113 63.0519 1.58651 63.0354 1.34409 63.0009C0.884008 62.9349 0.566371 62.6712 0.590931 62.19C0.61549 61.7088 0.94295 61.422 1.44888 61.4204C2.43126 61.4204 3.41364 61.4204 4.39602 61.4204C5.54213 61.4204 5.46517 61.5473 5.46681 60.3738C5.46681 58.2148 5.46681 56.0575 5.46681 53.8985C5.46681 52.9179 5.72059 52.6757 6.70952 52.6658C8.06193 52.6526 7.89984 52.8388 7.90802 51.4429C7.90802 50.3123 7.90802 49.1817 7.90802 48.0512C7.90802 46.7788 8.07175 46.6206 9.30136 46.619C9.8122 46.619 10.323 46.6074 10.8322 46.619C11.1974 46.6305 11.366 46.4855 11.3398 46.113C11.3283 45.9284 11.3398 45.7439 11.3398 45.5593C11.3398 36.8426 11.3234 28.1276 11.3398 19.4109C11.3559 15.3165 12.7168 11.3424 15.2107 8.10781C17.7045 4.87318 21.1912 2.55964 25.1275 1.52761C35.5637 -1.22138 46.1455 5.67582 47.9384 16.3916C48.1106 17.4871 48.1917 18.5952 48.1807 19.7042C48.1741 28.6269 48.1692 37.5485 48.1659 46.469C48.1643 47.0903 48.3395 47.532 48.9584 47.8913ZM46.6171 45.9136V45.3434C46.6171 36.8547 46.6138 28.3649 46.6072 19.874C46.6148 18.7847 46.5288 17.6967 46.3502 16.6223C45.6075 12.2427 43.1826 8.33314 39.5997 5.7384C36.0167 3.14366 31.5634 2.07215 27.202 2.75543C19.1432 3.975 13.0442 10.9431 12.9869 19.1488C12.9263 28.0699 12.9738 36.9909 12.9607 45.912C12.9607 46.4393 13.1065 46.6289 13.6533 46.6272C23.5186 46.614 33.3828 46.6096 43.2459 46.614C43.3899 46.614 43.5733 46.6948 43.6879 46.4739C43.629 46.3767 43.5733 46.2696 43.5013 46.1707C43.2098 45.7686 42.9741 45.3384 43.3572 44.8869C43.7403 44.4353 44.2086 44.6001 44.6408 44.8275C45.2712 45.1588 45.8917 45.5115 46.6171 45.9136ZM24.394 61.4204C29.8855 61.4204 35.3775 61.4231 40.8701 61.4286C41.3613 61.4286 41.661 61.3445 41.7936 60.7957C41.9262 60.2469 42.3077 59.6652 42.8545 59.6207C43.9008 59.5333 44.4771 58.8691 45.0911 58.1852C45.1588 58.1074 45.2426 58.0455 45.3367 58.0039C45.7296 57.8391 45.7264 57.5457 45.6118 57.193C45.3477 56.3936 45.0333 55.6119 44.6703 54.8528C44.4755 54.4408 44.2053 54.304 43.7616 54.304C31.7766 54.3139 19.7921 54.3139 7.80815 54.304C7.22691 54.304 7.08119 54.5199 7.08774 55.0637C7.1123 56.9129 7.08774 58.7637 7.09756 60.6128C7.09756 61.4204 7.09756 61.422 7.91621 61.422L24.394 61.4204ZM46.0211 50.5068C45.8131 50.0651 45.5806 49.635 45.4005 49.1883C45.1255 48.4945 44.69 48.2423 43.9073 48.244C34.0835 48.2753 24.2597 48.2654 14.4458 48.2654C13.0786 48.2654 11.7098 48.2901 10.3427 48.2539C9.74016 48.2374 9.49293 48.4104 9.52404 49.0515C9.56988 49.9745 9.53386 50.9007 9.5355 51.8253C9.5355 52.6674 9.5355 52.6707 10.3885 52.6707C21.0266 52.6707 31.6636 52.6707 42.2995 52.6707C42.5124 52.6707 42.7432 52.7482 42.9675 52.5718C42.5647 52.0346 42.0359 51.644 41.5856 51.1743C41.3286 50.9056 41.1681 50.6139 41.34 50.2332C41.4116 50.0731 41.5309 49.9394 41.6815 49.8508C41.832 49.7622 42.0063 49.723 42.18 49.7388C42.383 49.7388 42.586 49.7668 42.7891 49.7866C43.8729 49.8789 44.9077 50.1755 46.0211 50.5068ZM55.9267 48.5621C55.8563 48.5494 55.7837 48.5566 55.7169 48.5827C55.6502 48.6089 55.5919 48.6531 55.5485 48.7104C52.3361 51.527 51.1278 55.1379 51.362 59.3372C51.3816 59.6668 51.5814 59.858 51.8531 59.8481C52.1249 59.8382 52.0332 59.53 52.0398 59.3537C52.1331 57.1106 52.621 55.0077 54.1012 53.2393C54.1695 53.1626 54.2208 53.0722 54.2518 52.974C54.6627 51.4544 55.1425 49.9613 55.9267 48.5621ZM56.9894 52.9476C56.8846 52.9575 56.842 52.9476 56.8125 52.9641C54.4859 54.3518 52.9567 58.467 53.7835 61.0759C53.9571 61.6231 54.3762 61.3742 54.7004 61.4055C55.0885 61.4484 55.1212 61.16 55.0901 60.8732C54.9852 59.8306 55.0077 58.7789 55.1572 57.7418C55.3826 56.0217 56.0074 54.3792 56.9812 52.9476H56.9894ZM51.0803 61.4187C51.0053 61.3212 50.9074 61.2441 50.7953 61.1943C50.6832 61.1445 50.5606 61.1237 50.4385 61.1336C49.8262 61.1731 49.4987 60.8617 49.3186 60.3096C49.2014 59.9554 48.9784 59.6463 48.6801 59.4245C47.5569 58.5544 46.0031 59.0158 45.4595 60.3854C45.0829 61.3314 44.8946 61.422 43.9532 61.1072C43.8787 61.0749 43.8006 61.0517 43.7207 61.038C43.5651 61.0265 43.4096 61.0924 43.3932 61.2473C43.3621 61.483 43.5766 61.4204 43.6978 61.422C46.1111 61.4204 48.5376 61.4187 51.0722 61.4187H51.0803ZM44.6654 51.8978C45.9179 53.4255 46.6465 55.0852 47.1885 56.842C47.2622 57.0777 47.3064 57.3364 47.6273 57.3562C48.0134 57.3892 48.3931 57.4763 48.7554 57.6149C49.0173 57.7089 49.0828 57.6001 49.0665 57.3529C48.9764 55.0555 47.0575 52.6196 44.6572 51.8978H44.6654ZM51.5748 44.1518C50.8503 45.8538 50.5146 47.6977 50.5924 49.5476C50.6121 50.1492 50.9297 50.5826 51.1835 51.0638C51.2588 51.2089 51.4062 51.3078 51.5109 51.1232C51.7254 50.7342 52.1233 50.4079 52.1053 49.9333C52.0218 47.9984 51.9252 46.0636 51.5666 44.1518H51.5748ZM50.0914 54.716C50.1684 54.1985 50.5826 53.7551 50.3845 53.2245C49.6592 51.2468 48.4361 49.6168 46.8283 48.2621C47.4019 49.5021 47.8697 50.7889 48.2265 52.1087C48.2475 52.1669 48.283 52.2185 48.3297 52.2587C49.0337 52.9843 49.6248 53.8128 50.0832 54.716H50.0914Z" fill="white"/>
<path d="M27.4376 24.1344C27.4376 23.0648 27.4212 21.9919 27.4376 20.9272C27.449 20.4146 27.2444 20.2317 26.7483 20.2498C26.0753 20.2746 25.4008 20.2713 24.7278 20.2498C23.9436 20.2202 23.6636 19.9417 23.639 19.1473C23.6112 18.3232 23.6112 17.4992 23.639 16.6752C23.6652 15.8791 23.9436 15.6039 24.7311 15.5759C25.4253 15.5512 26.1195 15.5528 26.8138 15.5759C27.2558 15.5858 27.4425 15.4111 27.4359 14.9579C27.4212 14.0959 27.4147 13.2323 27.4359 12.3687C27.467 11.4392 27.7143 11.2151 28.6312 11.2151C29.4072 11.2151 30.1833 11.2151 30.9594 11.2151C31.7781 11.2151 32.0564 11.4821 32.076 12.3226C32.0957 13.1236 32.076 13.9245 32.0842 14.7271C32.0842 15.5693 32.0842 15.5693 32.9504 15.5726C33.5627 15.5726 34.1767 15.5578 34.7874 15.5841C35.575 15.6171 35.8648 15.9138 35.8811 16.6834C35.8975 17.5063 35.8975 18.3304 35.8811 19.1555C35.8648 19.907 35.5864 20.2119 34.848 20.2515C34.216 20.2845 33.5824 20.2647 32.9487 20.268C32.0875 20.268 32.0842 20.268 32.0842 21.1134C32.0842 23.1488 32.0842 25.1842 32.0842 27.2196C32.0842 28.3023 31.8206 28.5594 30.7433 28.5611C30.0491 28.5611 29.3549 28.5611 28.6606 28.5611C27.7339 28.5611 27.4572 28.299 27.4376 27.3531C27.4163 26.2834 27.4376 25.2106 27.4376 24.1459V24.1344ZM29.0618 22.956C29.0618 24.0454 29.0896 25.1364 29.0503 26.2241C29.0307 26.7911 29.2599 26.9097 29.7707 26.9147C30.3094 26.9147 30.4748 26.7383 30.4699 26.201C30.4437 24.0421 30.4551 21.8831 30.4617 19.7241C30.4617 18.8852 30.7367 18.6232 31.5668 18.6166C32.302 18.6166 33.0404 18.5968 33.7723 18.6166C34.3339 18.6314 34.2635 18.2491 34.2635 17.903C34.2635 17.5569 34.3142 17.1828 33.7723 17.2025C33.0977 17.2273 32.4231 17.2025 31.7502 17.2025C30.6942 17.2025 30.4731 16.9718 30.4715 15.8841C30.4715 15.0205 30.4486 14.1553 30.4715 13.2933C30.4895 12.6951 30.0998 12.7775 29.7331 12.7676C29.3663 12.7577 29.0454 12.7577 29.0618 13.295C29.0896 14.241 29.0732 15.187 29.0618 16.1329C29.0618 16.9356 28.7982 17.1894 27.9877 17.1976C27.2526 17.1976 26.5141 17.2223 25.7823 17.1976C25.183 17.1729 25.2731 17.5734 25.2616 17.9392C25.2501 18.3051 25.2616 18.6347 25.7888 18.615C26.5436 18.5853 27.3 18.6001 28.0548 18.615C28.8096 18.6298 29.0552 18.8902 29.0618 19.6219C29.0634 20.7344 29.0552 21.8518 29.0569 22.956H29.0618Z" fill="white"/>
<path d="M17.026 32.8411C17.026 36.045 17.026 39.2489 17.026 42.4527C17.026 42.6373 17.026 42.8219 17.026 43.0065C16.9851 43.5767 16.6249 43.9871 16.1746 43.9409C15.6327 43.8849 15.4149 43.519 15.3953 43.0048C15.3953 42.8614 15.3953 42.7181 15.3953 42.573C15.3953 36.0433 15.3953 29.5131 15.3953 22.9823C15.3953 22.0825 15.6671 21.6392 16.2139 21.6392C16.7608 21.6392 17.0326 22.0891 17.0326 22.984C17.0304 26.2703 17.0282 29.556 17.026 32.8411Z" fill="white"/>
<path d="M29.7429 42.0028H21.8413C21.637 42.0094 21.4326 42.0045 21.2289 41.988C20.7918 41.9402 20.4839 41.7028 20.4594 41.2513C20.4315 40.775 20.7181 40.4882 21.1765 40.3976C21.3779 40.3659 21.5818 40.3532 21.7856 40.3597C27.0959 40.3597 32.4057 40.3597 37.7149 40.3597C37.9789 40.3525 38.2428 40.3813 38.4991 40.4454C38.6721 40.4828 38.8256 40.5825 38.9308 40.7257C39.036 40.8689 39.0857 41.0458 39.0706 41.2232C39.0681 41.4011 39.0034 41.5723 38.8878 41.7068C38.7721 41.8413 38.6131 41.9303 38.4386 41.9583C38.2176 41.9977 37.993 42.0116 37.7689 41.9995C35.0936 42.0039 32.4182 42.005 29.7429 42.0028Z" fill="white"/>
<path d="M29.743 38.5517H21.7808C21.5771 38.5605 21.373 38.5545 21.1701 38.5336C20.7575 38.4742 20.4841 38.227 20.4579 37.8084C20.436 37.6208 20.4867 37.4319 20.5995 37.2809C20.7123 37.1299 20.8785 37.0285 21.0637 36.9976C21.3223 36.9405 21.5865 36.9128 21.8512 36.9151C27.12 36.9151 32.3878 36.9151 37.6544 36.9151C37.9401 36.911 38.2251 36.9437 38.5025 37.0124C38.6764 37.0468 38.8311 37.1457 38.936 37.2894C39.0409 37.4332 39.0884 37.6113 39.069 37.7886C39.0668 37.9769 38.995 38.1575 38.8675 38.2953C38.74 38.433 38.5661 38.518 38.3797 38.5336C38.1763 38.5545 37.9717 38.5605 37.7674 38.5517H29.743Z" fill="white"/>
<path d="M24.5429 35.1006C23.5032 35.1006 22.4619 35.1006 21.4206 35.1006C20.8082 35.1006 20.448 34.794 20.448 34.3194C20.448 33.8448 20.8049 33.5399 21.4206 33.5366C23.5218 33.53 25.6235 33.53 27.7258 33.5366C28.325 33.5366 28.7082 33.8662 28.6607 34.3458C28.6067 34.8979 28.2465 35.1039 27.7258 35.1022C26.6605 35.0978 25.5995 35.0973 24.5429 35.1006Z" fill="white"/>
<path d="M15.3608 19.5032C15.3766 19.2807 15.4122 19.0601 15.4673 18.844C15.513 18.6828 15.6097 18.541 15.7426 18.4401C15.8755 18.3392 16.0375 18.2845 16.204 18.2845C16.3706 18.2845 16.5326 18.3392 16.6655 18.4401C16.7984 18.541 16.8951 18.6828 16.9408 18.844C17.0873 19.2926 17.0907 19.7761 16.9507 20.2267C16.8994 20.3827 16.8006 20.5184 16.6683 20.6145C16.5361 20.7107 16.377 20.7625 16.2139 20.7625C16.0507 20.7625 15.8917 20.7107 15.7594 20.6145C15.6271 20.5184 15.5284 20.3827 15.4771 20.2267C15.4186 19.9892 15.3797 19.7472 15.3608 19.5032Z" fill="white"/>
<path d="M28.4298 57.8111C28.4298 58.1193 28.4478 58.4258 28.4298 58.7324C28.3971 59.1955 28.1613 59.5152 27.6799 59.5465C27.1986 59.5778 26.8973 59.2911 26.8433 58.8313C26.7573 58.1197 26.7573 57.4003 26.8433 56.6888C26.8484 56.5902 26.8732 56.4937 26.9163 56.4051C26.9594 56.3165 27.0198 56.2375 27.094 56.173C27.1682 56.1085 27.2546 56.0598 27.3479 56.0297C27.4413 55.9997 27.5398 55.989 27.6374 55.9982C28.1286 56.0098 28.3807 56.3048 28.4233 56.7695C28.4544 57.114 28.4233 57.4634 28.4233 57.8111H28.4298Z" fill="white"/>
<path d="M37.0158 57.7798C37.0149 58.1478 36.9925 58.5154 36.9487 58.8807C36.875 59.3092 36.5934 59.5845 36.1415 59.5614C36.0432 59.5627 35.9456 59.5445 35.8543 59.5077C35.763 59.4709 35.6798 59.4164 35.6095 59.3471C35.5392 59.2779 35.4832 59.1954 35.4447 59.1043C35.4062 59.0133 35.3859 58.9154 35.3851 58.8165C35.345 58.1221 35.345 57.426 35.3851 56.7317C35.3847 56.6329 35.4044 56.5351 35.4428 56.4441C35.4812 56.3532 35.5375 56.2711 35.6084 56.2028C35.6793 56.1346 35.7633 56.0815 35.8552 56.0469C35.9471 56.0123 36.0451 55.9969 36.1431 56.0016C36.6343 55.9884 36.9012 56.2834 36.9618 56.7382C36.9866 57.0849 36.9894 57.4328 36.97 57.7798H37.0158Z" fill="white"/>
<path d="M9.75483 57.7204C9.73845 57.3937 9.73845 57.0665 9.75483 56.7398C9.7974 56.3031 10.0446 56.0229 10.5031 55.9998C10.5997 55.9865 10.698 55.9932 10.7919 56.0196C10.8858 56.046 10.9734 56.0915 11.0492 56.1533C11.125 56.215 11.1874 56.2918 11.2326 56.3788C11.2778 56.4658 11.3048 56.5611 11.3119 56.659C11.4175 57.3884 11.4208 58.129 11.3217 58.8592C11.3165 58.9578 11.2914 59.0543 11.248 59.1428C11.2045 59.2313 11.1437 59.31 11.0691 59.3741C10.9945 59.4383 10.9078 59.4865 10.8142 59.5158C10.7205 59.5451 10.6219 59.555 10.5244 59.5448C10.043 59.5283 9.78758 59.2251 9.74992 58.7587C9.72209 58.4142 9.74992 58.0648 9.74992 57.7171L9.75483 57.7204Z" fill="white"/>
<path d="M32.7082 57.7501C32.7082 58.0797 32.7328 58.4093 32.7082 58.739C32.6607 59.2185 32.4086 59.563 31.8896 59.563C31.4082 59.563 31.1315 59.2334 31.1053 58.7802C31.0635 58.1068 31.0635 57.4314 31.1053 56.758C31.1031 56.654 31.1226 56.5507 31.1627 56.4548C31.2027 56.3589 31.2623 56.2725 31.3377 56.2014C31.413 56.1302 31.5024 56.0757 31.6 56.0416C31.6977 56.0074 31.8013 55.9943 31.9043 56.0032C32.3955 56.0032 32.6394 56.3229 32.6935 56.7745C32.7123 57.101 32.7123 57.4285 32.6935 57.7551L32.7082 57.7501Z" fill="white"/>
<path d="M24.1433 57.7452C24.1433 58.0929 24.1613 58.4407 24.1433 58.7868C24.1122 59.2301 23.865 59.5152 23.4163 59.5465C23.3198 59.5618 23.2212 59.5569 23.1266 59.5321C23.0321 59.5073 22.9436 59.4631 22.8668 59.4023C22.7899 59.3415 22.7264 59.2654 22.6801 59.1788C22.6338 59.0922 22.6057 58.9969 22.5977 58.8988C22.4798 58.1514 22.4798 57.39 22.5977 56.6426C22.6681 56.1927 22.9792 55.9719 23.4245 56.0032C23.8699 56.0345 24.1155 56.3245 24.1482 56.7646C24.163 57.0892 24.1449 57.4189 24.1433 57.7452Z" fill="white"/>
<path d="M39.6486 57.7386C39.6486 57.432 39.6355 57.1239 39.6486 56.819C39.6732 56.3526 39.8992 56.0378 40.3854 55.9949C40.8717 55.9521 41.1615 56.2306 41.2221 56.697C41.3175 57.4079 41.3175 58.1286 41.2221 58.8395C41.1566 59.3076 40.8635 59.5844 40.3838 59.5449C39.9041 59.5053 39.6732 59.1839 39.6503 58.7208C39.6355 58.3929 39.6486 58.0649 39.6486 57.7386Z" fill="white"/>
<path d="M14.0331 57.7336C14.0331 57.404 14.0119 57.0744 14.0331 56.7448C14.0692 56.2998 14.3164 56.0213 14.7748 55.9982C14.8682 55.9851 14.9633 55.9911 15.0543 56.0158C15.1453 56.0406 15.2304 56.0835 15.3046 56.1421C15.3787 56.2008 15.4404 56.2739 15.4858 56.357C15.5312 56.4402 15.5595 56.5317 15.5689 56.6261C15.7056 57.3957 15.7056 58.1836 15.5689 58.9532C15.4936 59.3801 15.1858 59.5811 14.7683 59.5531C14.5803 59.5536 14.3997 59.4798 14.2653 59.3475C14.1309 59.2153 14.0534 59.0353 14.0495 58.8461C14.0151 58.4802 14.0495 58.1078 14.0495 57.7386L14.0331 57.7336Z" fill="white"/>
<path d="M19.8586 57.8112C19.8586 58.1408 19.8782 58.4704 19.8586 58.8C19.8242 59.2779 19.559 59.5631 19.071 59.5548C18.9727 59.5612 18.8741 59.5466 18.7818 59.5119C18.6894 59.4772 18.6054 59.4232 18.5354 59.3534C18.4653 59.2836 18.4107 59.1997 18.3752 59.1072C18.3397 59.0146 18.324 58.9156 18.3293 58.8165C18.3048 58.121 18.3031 57.4222 18.3293 56.7267C18.3457 56.2718 18.6241 56.0115 19.0825 56.0065C19.18 55.9966 19.2786 56.0074 19.3717 56.0383C19.4648 56.0692 19.5505 56.1194 19.623 56.1858C19.6956 56.2522 19.7535 56.3331 19.7929 56.4235C19.8324 56.5138 19.8525 56.6115 19.852 56.7102C19.8848 57.0761 19.852 57.4469 19.852 57.8161L19.8586 57.8112Z" fill="white"/>
</g>
<defs>
<clipPath id="clip0_381_40">
<rect width="60.3067" height="62.1341" fill="white" transform="translate(0.585938 0.921143)"/>
</clipPath>
</defs>
</svg>
