<svg width="78" height="66" viewBox="0 0 78 66" fill="none" xmlns="http://www.w3.org/2000/svg">
<path d="M77.6213 25.6575C77.5833 25.7738 77.5074 25.89 77.5074 26.0063C77.3174 28.8747 76.5577 31.5687 75.3802 34.1657C74.4496 36.1814 73.2911 38.0613 71.8097 39.7087C70.6132 41.046 69.3597 42.3252 68.1062 43.5849C67.6504 44.0307 67.2705 44.5152 66.9287 45.0579C66.017 46.5115 64.7066 47.4224 62.9973 47.6549C62.6554 47.7131 62.2946 47.7518 61.8957 47.81C61.9147 49.4961 61.3639 50.9497 60.1864 52.132C59.0469 53.2948 57.6035 53.7987 55.9511 53.8181C55.9701 55.543 55.4194 56.9966 54.2608 58.1788C53.1213 59.3223 51.6969 59.8844 50.0825 59.8456C49.9686 60.5239 49.8736 61.1441 49.7217 61.7643C49.1899 63.9156 47.2337 65.6018 45.1066 65.8925C43.0934 66.1638 41.4411 65.4855 40.0356 64.0707C39.3329 63.3536 38.6492 62.6559 37.9465 61.9388C37.7756 61.7643 37.5856 61.5899 37.3577 61.3573C36.731 62.0163 36.1042 62.6559 35.4965 63.2954C34.7368 64.0707 33.8631 64.6521 32.8186 64.9816C29.324 66.0281 25.8104 63.4311 25.5825 59.8844C25.5635 59.6906 25.5255 59.4774 25.5066 59.206C25.2217 59.1673 24.9558 59.1091 24.6899 59.0897C22.1449 58.8959 19.8848 56.6671 19.6569 54.0313C19.6379 53.76 19.581 53.4692 19.524 53.1398C15.8965 52.8297 13.9213 50.814 13.5984 47.0735C10.2748 46.8409 8.28057 45.0579 7.69181 41.6856C3.36158 37.538 0.740648 32.499 0.132896 26.4521C-0.512841 19.9401 1.17747 14.087 5.20383 8.98978C7.86275 5.61749 11.2434 3.13671 15.2887 1.64437C19.2961 0.152036 23.3984 -0.196823 27.5767 0.578418C31.793 1.35366 35.5155 3.23362 38.7632 6.14077C38.9721 5.98572 39.143 5.85006 39.3139 5.71439C42.3337 3.13671 45.7903 1.43118 49.6457 0.675323C55.1345 -0.410014 60.3953 0.384608 65.3523 3.07857C66.074 3.46619 66.4349 4.12515 66.3209 4.74534C66.15 5.73377 65.2763 6.27644 64.3267 5.96634C64.0229 5.86944 63.719 5.71439 63.4341 5.55934C61.212 4.39648 58.838 3.66 56.369 3.42743C50.9942 2.9429 46.1132 4.29958 41.8019 7.67187C41.0042 8.29207 40.2445 8.98978 39.5418 9.72626C36.3131 13.0017 33.1035 16.2771 29.8938 19.5718C29.6469 19.8238 29.4 20.0951 29.1911 20.3664C28.0895 21.7813 28.2414 23.8357 29.4949 25.076C30.7484 26.3358 32.7616 26.4133 34.129 25.2698C34.3569 25.076 34.5849 24.8628 34.7938 24.6303C36.0283 23.3705 37.2818 22.1301 38.4783 20.851C39.105 20.192 39.7887 19.9013 40.7004 19.9207C42.3337 19.9788 43.986 19.9594 45.6194 19.9207C46.3411 19.9013 47.0818 19.8044 47.7845 19.6687C49.2279 19.3586 50.4244 18.5446 51.469 17.4981C52.2856 16.6647 53.1023 15.8119 53.938 14.9785C54.1279 14.7847 54.3558 14.5909 54.5837 14.4552C55.1915 14.087 55.9132 14.2033 56.388 14.7072C56.8628 15.2111 56.9577 15.9476 56.5779 16.5484C56.4639 16.7422 56.312 16.9166 56.1411 17.0911C55.2484 18.002 54.3558 18.9323 53.4632 19.8238C52.6465 20.6378 51.7539 21.3355 50.6903 21.8782C50.7473 22.2076 50.9942 22.3627 51.1841 22.5371C55.6093 27.0723 60.0535 31.5881 64.4787 36.1038C65.5802 37.2279 66.7957 38.2551 67.4605 39.825C67.6504 39.6506 67.8023 39.5343 67.9542 39.3986C69.7205 37.6543 71.2589 35.7162 72.3605 33.4486C73.481 31.1423 74.1837 28.7197 74.4496 26.1614C74.7725 23.1573 74.4306 20.2502 73.481 17.4012C73.1391 16.374 72.6643 15.4049 72.2465 14.4165C72.1136 14.1064 71.9426 13.8157 71.8477 13.5056C71.6198 12.8078 71.9046 12.0714 72.5124 11.7031C73.1581 11.3349 73.9748 11.4512 74.4116 12.0907C74.8294 12.7303 75.1903 13.4087 75.4942 14.1258C76.5957 16.6065 77.2984 19.2036 77.5074 21.9363C77.5074 22.0526 77.5833 22.1689 77.6213 22.2852C77.6213 23.3899 77.6213 24.514 77.6213 25.6575ZM40.6434 23.0023C39.3709 24.3008 38.1554 25.5993 36.8829 26.8397C36.3701 27.3436 35.8383 27.8281 35.2306 28.1964C33.0655 29.4562 30.8624 29.4562 28.6783 28.2351C26.1523 26.8397 24.8608 23.5449 25.6585 20.7347C26.0193 19.4555 26.7221 18.409 27.6337 17.4787C30.4255 14.6297 33.2364 11.7613 36.0473 8.89288C36.2372 8.69907 36.4081 8.50526 36.598 8.31145C28.6973 1.21799 15.6496 1.35366 7.91972 10.5015C0.911578 18.816 1.72825 31.026 8.54647 38.1195C9.72399 36.6659 11.0155 35.3286 12.4209 34.1076C15.5736 31.3749 20.4926 32.9447 21.5372 37.0923C21.6701 37.6349 21.7081 38.197 21.8031 38.759C21.974 38.7784 22.1259 38.7978 22.2779 38.7978C24.8798 38.9529 26.969 40.7941 27.5197 43.2748C27.6337 43.7593 27.6717 44.2826 27.7476 44.8059C29.381 44.8834 30.8054 45.368 31.9639 46.5502C33.1225 47.7325 33.5973 49.2248 33.6732 50.8528C37.4527 50.9109 40.5864 54.3995 39.257 58.8572C40.0926 59.7099 40.9473 60.5821 41.8019 61.4542C42.0868 61.7449 42.3717 62.055 42.6756 62.307C43.5872 63.0435 44.8217 63.0822 45.7903 62.4233C46.7399 61.7643 47.1577 60.5821 46.8728 59.4386C46.7019 58.7796 46.3031 58.3145 45.8473 57.8494C43.2833 55.2329 40.7383 52.6359 38.1744 50.0194C37.9465 49.7868 37.6996 49.5349 37.5287 49.2636C37.0918 48.5271 37.3387 47.6356 38.0604 47.1898C38.7062 46.8022 39.3899 46.9185 40.0546 47.5774C41.3461 48.8372 42.6376 50.1163 43.9101 51.3955C45.2775 52.7715 46.6259 54.167 47.9934 55.543C48.1833 55.7368 48.3922 55.95 48.6011 56.1244C49.6457 56.9966 51.1461 56.9384 52.1337 56.0082C53.0643 55.1166 53.2353 53.5661 52.4946 52.4808C52.2856 52.1707 52.0008 51.88 51.7349 51.6087C47.9744 47.7518 44.1949 43.9144 40.4345 40.0576C40.2825 39.9025 40.1496 39.7669 40.0166 39.6118C39.105 38.6234 39.6368 37.1504 40.7953 36.976C40.8903 36.9566 40.9852 36.9372 41.0042 36.9372C41.688 36.9954 42.0868 37.3636 42.4856 37.7706C46.2841 41.6662 50.1015 45.5424 53.9 49.4186C54.1089 49.6318 54.3178 49.8644 54.5647 50.0582C55.4384 50.7753 56.5969 50.8722 57.5465 50.3295C58.4961 49.7868 58.9899 48.7403 58.876 47.5968C58.8 46.8022 58.3442 46.2207 57.8124 45.6975C53.9759 41.8019 50.1585 37.8869 46.3411 33.9913C46.1321 33.7781 45.9232 33.5455 45.7523 33.2936C45.3155 32.654 45.3914 31.84 45.9232 31.3167C46.474 30.7934 47.2337 30.7353 47.8604 31.2198C48.0883 31.3943 48.2783 31.5881 48.4682 31.8013C52.2666 35.6581 56.0461 39.5343 59.8446 43.3911C60.1105 43.6624 60.3953 43.9338 60.6992 44.147C61.6108 44.7865 62.7694 44.7672 63.681 44.147C64.5926 43.5268 65.0105 42.267 64.7825 41.298C64.6116 40.6196 64.2128 40.0963 63.757 39.6312C58.4391 34.2045 53.1023 28.7584 47.7845 23.3317C47.6325 23.1767 47.4616 23.0216 47.4046 22.9635C46.1891 22.9635 45.1066 22.9635 44.005 22.9635C42.9035 23.0023 41.8019 23.0023 40.6434 23.0023ZM30.5965 50.6396C30.5015 49.593 30.0647 48.7209 29.0771 48.2364C28.0705 47.7325 27.0829 47.81 26.2473 48.5465C25.2027 49.4961 24.1961 50.5233 23.2465 51.5893C22.2779 52.694 22.3918 54.3026 23.3984 55.2911C24.405 56.2795 25.9624 56.357 27.0259 55.3686C28.0135 54.4577 28.9252 53.4499 29.8748 52.4808C30.3686 51.9963 30.5395 51.3373 30.5965 50.6396ZM36.5221 56.7253C36.4651 55.6787 36.0093 54.7872 34.9647 54.2832C33.9581 53.7987 32.9705 53.8956 32.1349 54.6515C31.0903 55.6205 30.0837 56.6477 29.1531 57.7137C28.4124 58.5471 28.3554 59.5936 28.8112 60.6015C29.5329 62.1519 31.4701 62.6946 32.7616 61.5899C33.9201 60.6015 34.9267 59.4386 35.9713 58.3339C36.3701 57.9269 36.4841 57.3842 36.5221 56.7253ZM19.3531 50C20.0368 50 20.6445 49.7868 21.1383 49.3023C21.4612 48.9922 21.7841 48.6628 22.1069 48.3333C22.7337 47.6937 23.3794 47.0929 23.9682 46.4146C25.1457 45.0191 24.6899 42.8678 23.0376 42.1507C21.936 41.6662 20.9104 41.8794 20.0368 42.7322C19.391 43.3524 18.7833 43.9919 18.1565 44.6315C17.8337 44.961 17.4918 45.2711 17.2259 45.6393C16.5612 46.5308 16.4472 47.5193 16.96 48.5271C17.4728 49.4961 18.2705 49.9807 19.3531 50ZM13.7314 43.9532C14.1302 43.9725 14.7569 43.7012 15.2697 43.1973C16.1814 42.3058 17.055 41.3755 17.9476 40.4646C18.0806 40.3289 18.1755 40.1932 18.2705 40.0382C18.9732 38.9141 18.7643 37.383 17.7957 36.5108C16.8271 35.6581 15.3267 35.5612 14.3961 36.4333C13.3325 37.4218 12.3069 38.4683 11.3383 39.5537C10.6166 40.3677 10.5407 41.3755 10.9965 42.3833C11.4713 43.3911 12.2879 43.9338 13.7314 43.9532Z" fill="#FFA825"/>
</svg>
