<svg width="244" height="21" viewBox="0 0 244 21" fill="none" xmlns="http://www.w3.org/2000/svg">
<path opacity="0.07" d="M29.9396 0.493164H3.27295C1.85628 0.493164 0.772949 1.5765 0.772949 2.99316V17.9932C0.772949 19.4098 1.93962 20.4932 3.27295 20.4932H29.9396C31.3563 20.4932 32.4396 19.4098 32.4396 17.9932V2.99316C32.4396 1.5765 31.2729 0.493164 29.9396 0.493164Z" fill="black"/>
<path d="M29.9398 1.32666C30.8564 1.32666 31.6064 2.07666 31.6064 2.99333V17.9933C31.6064 18.91 30.8564 19.66 29.9398 19.66H3.27311C2.35645 19.66 1.60645 18.91 1.60645 17.9933V2.99333C1.60645 2.07666 2.35645 1.32666 3.27311 1.32666H29.9398Z" fill="#006FCF"/>
<path d="M8.24894 9.04967L8.89395 10.613H7.60895L8.24894 9.04967ZM21.6448 9.11467H19.1639V9.80383H21.6048V10.8363H19.1689V11.6047H21.6498V12.2205L23.3806 10.3497L21.6498 8.39967L21.6448 9.11467ZM9.92561 7.16467H13.2548L13.9939 8.77717L14.6789 7.15967H23.3206L24.2189 8.15133L25.1481 7.15967H29.1173L26.1848 10.3697L29.0873 13.5597H25.0589L24.1606 12.568L23.2231 13.5597H9.13144L8.71978 12.568H7.77811L7.36561 13.5597H4.10645L6.84478 7.15967H9.70311L9.92561 7.16467ZM17.1448 8.063H15.2789L14.0289 11.0097L12.6748 8.063H10.8231V12.0713L9.10645 8.063H7.44561L5.46061 12.6563H6.75645L7.16811 11.6647H9.33145L9.74311 12.6563H12.0098V9.37717L13.4689 12.6613H14.4606L15.9106 9.38717V12.6622H17.1256L17.1456 8.06217L17.1448 8.063ZM24.9281 10.3697L27.0373 8.063H25.5189L24.1848 9.50133L22.8948 8.063H17.9831V12.6613H22.8248L24.1698 11.213L25.4598 12.6613H27.0223L24.9289 10.3697H24.9281Z" fill="white"/>
<path opacity="0.07" d="M72.4396 0.493164H45.7729C44.3563 0.493164 43.2729 1.5765 43.2729 2.99316V17.9932C43.2729 19.4098 44.4396 20.4932 45.7729 20.4932H72.4396C73.8563 20.4932 74.9396 19.4098 74.9396 17.9932V2.99316C74.9396 1.5765 73.7729 0.493164 72.4396 0.493164Z" fill="black"/>
<path d="M72.4398 1.32666C73.3564 1.32666 74.1064 2.07666 74.1064 2.99333V17.9933C74.1064 18.91 73.3564 19.66 72.4398 19.66H45.7731C44.8564 19.66 44.1064 18.91 44.1064 17.9933V2.99333C44.1064 2.07666 44.8564 1.32666 45.7731 1.32666H72.4398Z" fill="white"/>
<path d="M53.2729 10.493V13.5763C53.2729 13.8263 53.1062 13.8263 52.8562 13.743C51.2729 13.0763 50.3562 10.993 50.9395 9.243C51.2729 8.32633 51.9395 7.57634 52.8562 7.243C53.1895 7.07633 53.2729 7.15967 53.2729 7.40967V10.493ZM54.9395 10.493V7.40967C54.9395 7.15967 54.9395 7.15967 55.1895 7.243C56.9395 7.90967 57.8562 9.993 57.1895 11.743C56.8562 12.6597 56.1895 13.4097 55.2729 13.743C54.9395 13.9097 54.9395 13.8263 54.9395 13.5763V10.493ZM60.9395 4.65967H54.1062C57.2729 4.65967 59.7729 7.243 59.7729 10.493C59.7729 13.743 57.2729 16.3263 54.1062 16.3263H60.9395C64.1062 16.3263 66.6062 13.743 66.6062 10.493C66.6062 7.243 64.1062 4.65967 60.9395 4.65967Z" fill="#3086C8"/>
<path opacity="0.07" d="M114.94 0.493164H88.2729C86.8563 0.493164 85.7729 1.5765 85.7729 2.99316V17.9932C85.7729 19.4098 86.9396 20.4932 88.2729 20.4932H114.94C116.356 20.4932 117.44 19.4098 117.44 17.9932V2.99316C117.44 1.5765 116.273 0.493164 114.94 0.493164Z" fill="black"/>
<path d="M114.94 1.32666C115.856 1.32666 116.606 2.07666 116.606 2.99333V17.9933C116.606 18.91 115.856 19.66 114.94 19.66H88.2731C87.3564 19.66 86.6064 18.91 86.6064 17.9933V2.99333C86.6064 2.07666 87.3564 1.32666 88.2731 1.32666H114.94Z" fill="white"/>
<path d="M88.7478 6.46035H87.4395V11.0437H88.7478C89.4395 11.0437 89.9395 10.877 90.3811 10.5187C90.9061 10.0854 91.2145 9.43535 91.2145 8.76035C91.2061 7.40202 90.1978 6.46035 88.7478 6.46035ZM89.7978 9.91035C89.5145 10.1604 89.1561 10.277 88.5728 10.277H88.3311V7.24369H88.5728C89.1478 7.24369 89.4978 7.34368 89.7978 7.61035C90.1061 7.88535 90.2895 8.31035 90.2895 8.75202C90.2895 9.19368 90.1061 9.63535 89.7978 9.91035ZM91.6228 6.46035H92.5145V11.0437H91.6228V6.46035ZM94.6978 8.21869C94.1645 8.01869 94.0061 7.88535 94.0061 7.64368C94.0061 7.35202 94.2895 7.13535 94.6728 7.13535C94.9395 7.13535 95.1645 7.24369 95.3895 7.51035L95.8561 6.90202C95.4728 6.56868 95.0145 6.39368 94.5061 6.39368C93.6978 6.39368 93.0728 6.96035 93.0728 7.71035C93.0728 8.34368 93.3645 8.66869 94.1978 8.96869C94.5478 9.09369 94.7228 9.17702 94.8145 9.22702C94.9895 9.34368 95.0811 9.51035 95.0811 9.70202C95.0811 10.077 94.7895 10.352 94.3895 10.352C93.9645 10.352 93.6228 10.1354 93.4145 9.74369L92.8395 10.302C93.2478 10.9104 93.7478 11.177 94.4228 11.177C95.3478 11.177 96.0061 10.5604 96.0061 9.66869C96.0228 8.92702 95.7145 8.59369 94.6978 8.21869ZM96.2978 8.76035C96.2978 10.1104 97.3561 11.152 98.7145 11.152C99.0978 11.152 99.4311 11.077 99.8311 10.8854V9.83535C99.4728 10.1937 99.1561 10.3354 98.7561 10.3354C97.8561 10.3354 97.2145 9.68535 97.2145 8.75202C97.2145 7.86868 97.8728 7.17702 98.7145 7.17702C99.1395 7.17702 99.4645 7.32702 99.8311 7.69369V6.64369C99.4395 6.44369 99.1145 6.36035 98.7311 6.36035C97.3895 6.36035 96.2978 7.42702 96.2978 8.76035ZM106.931 9.54368L105.706 6.46035H104.731L106.673 11.1604H107.156L109.131 6.46035H108.164L106.931 9.54368ZM109.539 11.0437H112.073V10.2687H110.431V9.03535H112.014V8.26035H110.431V7.24369H112.073V6.46035H109.539V11.0437ZM115.614 7.81868C115.614 6.96035 115.023 6.46868 113.989 6.46868H112.664V11.052H113.556V9.21035H113.673L114.906 11.052H116.006L114.564 9.11869C115.239 8.97702 115.614 8.51868 115.614 7.81868ZM113.814 8.57702H113.556V7.18535H113.831C114.389 7.18535 114.689 7.41869 114.689 7.86869C114.689 8.32702 114.389 8.57702 113.814 8.57702Z" fill="#231F20"/>
<path d="M102.573 11.2097C103.221 11.2097 103.842 10.9524 104.3 10.4943C104.758 10.0363 105.015 9.415 105.015 8.76721C105.015 8.11942 104.758 7.49816 104.3 7.0401C103.842 6.58204 103.221 6.32471 102.573 6.32471C101.925 6.32471 101.304 6.58204 100.846 7.0401C100.388 7.49816 100.13 8.11942 100.13 8.76721C100.13 9.415 100.388 10.0363 100.846 10.4943C101.304 10.9524 101.925 11.2097 102.573 11.2097Z" fill="url(#paint0_linear_361_1092)"/>
<path opacity="0.65" d="M102.573 11.2097C103.221 11.2097 103.842 10.9524 104.3 10.4943C104.758 10.0363 105.015 9.415 105.015 8.76721C105.015 8.11942 104.758 7.49816 104.3 7.0401C103.842 6.58204 103.221 6.32471 102.573 6.32471C101.925 6.32471 101.304 6.58204 100.846 7.0401C100.388 7.49816 100.13 8.11942 100.13 8.76721C100.13 9.415 100.388 10.0363 100.846 10.4943C101.304 10.9524 101.925 11.2097 102.573 11.2097Z" fill="url(#paint1_linear_361_1092)"/>
<path d="M116.606 11.313C116.606 11.313 108.348 17.0538 93.2529 19.6597H114.939C115.378 19.6597 115.8 19.4859 116.113 19.1762C116.425 18.8665 116.602 18.446 116.605 18.0063L116.625 15.4897L116.606 11.3138V11.313Z" fill="#F48120"/>
<path opacity="0.07" d="M157.439 0.361816H130.772C129.356 0.361816 128.272 1.44515 128.272 2.86182V17.8618C128.272 19.2785 129.439 20.3618 130.772 20.3618H157.439C158.856 20.3618 159.939 19.2785 159.939 17.8618V2.86182C159.939 1.44515 158.772 0.361816 157.439 0.361816Z" fill="black"/>
<path d="M157.439 1.19531C158.356 1.19531 159.106 1.94531 159.106 2.86198V17.862C159.106 18.7786 158.356 19.5286 157.439 19.5286H130.773C129.856 19.5286 129.106 18.7786 129.106 17.862V2.86198C129.106 1.94531 129.856 1.19531 130.773 1.19531H157.439Z" fill="white"/>
<path fill-rule="evenodd" clip-rule="evenodd" d="M135.181 5.08838H135.21V5.81671H135.181C133.301 5.81671 131.71 7.03338 131.181 8.71005L130.474 8.48921C131.099 6.51838 132.969 5.08838 135.181 5.08838Z" fill="url(#paint2_linear_361_1092)"/>
<path fill-rule="evenodd" clip-rule="evenodd" d="M135.21 5.81671V5.08838H135.181C137.399 5.08838 139.276 6.52838 139.894 8.50921L139.187 8.73088C138.667 7.05255 137.085 5.82921 135.21 5.81671Z" fill="url(#paint3_linear_361_1092)"/>
<path fill-rule="evenodd" clip-rule="evenodd" d="M137.641 13.2603L138.077 13.8503C137.232 14.4533 136.219 14.7762 135.181 14.7736C134.158 14.7763 133.16 14.4634 132.322 13.8778L132.759 13.2878C133.442 13.7653 134.278 14.0461 135.181 14.0461C136.101 14.0461 136.951 13.7544 137.641 13.2603Z" fill="url(#paint4_linear_361_1092)"/>
<path fill-rule="evenodd" clip-rule="evenodd" d="M130.474 8.48877L131.181 8.7096C131.056 9.10455 130.993 9.51629 130.993 9.93044C130.993 11.3163 131.69 12.5421 132.759 13.2871L132.323 13.8771C131.112 13.0296 130.309 11.6579 130.254 10.1004V9.76127C130.27 9.3196 130.346 8.89294 130.474 8.48877Z" fill="url(#paint5_linear_361_1092)"/>
<path fill-rule="evenodd" clip-rule="evenodd" d="M140.11 9.931C140.11 11.5427 139.31 12.9693 138.077 13.8502L137.641 13.261C138.174 12.8842 138.609 12.3853 138.91 11.8059C139.21 11.2266 139.368 10.5837 139.369 9.931C139.369 9.51267 139.305 9.1085 139.187 8.7285L139.894 8.50684C140.035 8.95684 140.11 9.43517 140.11 9.93184V9.931Z" fill="url(#paint6_linear_361_1092)"/>
<path fill-rule="evenodd" clip-rule="evenodd" d="M137.489 10.5436C137.489 10.287 137.31 10.172 136.913 10.172H135.933V10.9136H136.913C137.317 10.9136 137.489 10.8028 137.489 10.5436ZM136.775 8.98863H135.933V9.7303H136.775C137.156 9.7303 137.328 9.6153 137.328 9.36113C137.328 9.10613 137.153 8.98863 136.775 8.98863ZM138.003 10.5903C138.003 11.0853 137.608 11.367 136.912 11.367H135.473C135.448 11.367 135.431 11.3503 135.431 11.3261V8.57613C135.431 8.55197 135.448 8.53613 135.473 8.53613H136.785C137.463 8.53613 137.835 8.79697 137.835 9.2678C137.835 9.54697 137.71 9.77113 137.349 9.87863C137.806 9.97363 137.991 10.2428 138.003 10.5903ZM134.833 8.57613V8.9603C134.833 8.9853 134.816 9.00113 134.791 9.00113H133.124V9.71863H134.508C134.533 9.71863 134.548 9.7353 134.548 9.75947V10.1428C134.548 10.1678 134.532 10.1845 134.507 10.1845H133.125V11.3261C133.125 11.3511 133.108 11.367 133.083 11.367H132.664C132.639 11.367 132.623 11.3503 132.623 11.3261V8.57613C132.623 8.55197 132.639 8.53613 132.664 8.53613H134.792C134.817 8.53613 134.833 8.5528 134.833 8.57613H134.833Z" fill="#64717D"/>
<path fill-rule="evenodd" clip-rule="evenodd" d="M154.284 8.54506C154.693 9.80423 155.162 11.0429 155.691 12.2567L156.982 8.54506H158.015L156.164 13.3401C155.927 13.9542 155.647 14.4276 155.322 14.7609C154.997 15.0942 154.561 15.2609 154.015 15.2609C153.879 15.2609 153.751 15.2501 153.632 15.2284V14.3909C153.732 14.4067 153.821 14.4142 153.896 14.4142C154.227 14.4142 154.497 14.3226 154.706 14.1376C154.914 13.9534 155.097 13.6826 155.255 13.3259C154.864 12.554 154.499 11.7691 154.162 10.9726C153.821 10.1698 153.496 9.36048 153.187 8.54506H154.284ZM150.451 8.43339C151.031 8.43339 151.497 8.59756 151.851 8.92589C152.205 9.25506 152.382 9.74673 152.382 10.4009V13.1951H151.473V12.4367C151.29 12.7101 151.054 12.9201 150.767 13.0676C150.463 13.2187 150.127 13.2944 149.787 13.2884C149.288 13.2884 148.901 13.1617 148.625 12.9092C148.349 12.6567 148.211 12.3234 148.211 11.9117C148.211 11.5026 148.367 11.1592 148.677 10.8834C148.988 10.6084 149.484 10.4692 150.166 10.4692H151.453V10.4559C151.453 9.67423 151.087 9.28339 150.356 9.28339C150.049 9.28339 149.792 9.33756 149.581 9.44673C149.372 9.55506 149.202 9.70673 149.072 9.90256L148.424 9.38589C148.626 9.07923 148.892 8.84339 149.222 8.67923C149.572 8.51013 149.957 8.42564 150.347 8.43256H150.45L150.451 8.43339ZM145.072 6.68506C145.902 6.68506 146.522 6.87923 146.932 7.26839C147.342 7.65756 147.548 8.18506 147.548 8.85173C147.548 9.51589 147.342 10.0434 146.932 10.4334C146.522 10.8242 145.902 11.0192 145.072 11.0192H143.292V13.1959H142.297V6.68506H145.072H145.072ZM151.453 11.2009H150.203C149.832 11.2009 149.566 11.2592 149.406 11.3759C149.33 11.4284 149.268 11.4991 149.227 11.5815C149.185 11.6639 149.165 11.7553 149.167 11.8476C149.167 12.2559 149.442 12.4609 149.996 12.4609C150.362 12.4609 150.666 12.3801 150.909 12.2167C151.152 12.0542 151.334 11.8334 151.453 11.5542V11.2009ZM144.978 7.59589H143.292V10.1076H144.977C145.517 10.1076 145.911 10.0034 146.159 9.79339C146.407 9.58506 146.53 9.27089 146.53 8.85173C146.53 8.43339 146.407 8.11923 146.159 7.91006C145.911 7.70089 145.517 7.59589 144.977 7.59589H144.978Z" fill="#1B2529"/>
<path opacity="0.07" d="M199.939 0.361816H173.272C171.856 0.361816 170.772 1.44515 170.772 2.86182V17.8618C170.772 19.2785 171.939 20.3618 173.272 20.3618H199.939C201.356 20.3618 202.439 19.2785 202.439 17.8618V2.86182C202.439 1.44515 201.272 0.361816 199.939 0.361816Z" fill="black"/>
<path d="M199.939 1.19531C200.856 1.19531 201.606 1.94531 201.606 2.86198V17.862C201.606 18.7786 200.856 19.5286 199.939 19.5286H173.273C172.356 19.5286 171.606 18.7786 171.606 17.862V2.86198C171.606 1.94531 172.356 1.19531 173.273 1.19531H199.939Z" fill="white"/>
<path d="M183.272 16.195C186.494 16.195 189.106 13.5833 189.106 10.3617C189.106 7.13999 186.494 4.52832 183.272 4.52832C180.051 4.52832 177.439 7.13999 177.439 10.3617C177.439 13.5833 180.051 16.195 183.272 16.195Z" fill="#EB001B"/>
<path d="M189.939 16.195C193.161 16.195 195.773 13.5833 195.773 10.3617C195.773 7.13999 193.161 4.52832 189.939 4.52832C186.718 4.52832 184.106 7.13999 184.106 10.3617C184.106 13.5833 186.718 16.195 189.939 16.195Z" fill="#F79E1B"/>
<path d="M189.106 10.3618C189.106 8.36182 188.106 6.61182 186.606 5.61182C185.106 6.69515 184.106 8.44515 184.106 10.3618C184.106 12.2785 185.106 14.1118 186.606 15.1118C188.106 14.1118 189.106 12.3618 189.106 10.3618Z" fill="#FF5F00"/>
<path d="M241.606 1.19482C242.522 1.19482 243.272 1.94482 243.272 2.86149V17.8615C243.272 18.7782 242.522 19.5282 241.606 19.5282H214.939C214.022 19.5282 213.272 18.7782 213.272 17.8615V2.86149C213.272 1.94482 214.022 1.19482 214.939 1.19482H241.606Z" fill="white"/>
<path d="M236.023 8.77783H235.773C235.439 9.61117 235.189 10.0278 234.939 11.2778H236.523C236.273 10.0278 236.273 9.4445 236.023 8.77783ZM238.439 13.6945H237.023C236.939 13.6945 236.939 13.6945 236.856 13.6112L236.689 12.8612L236.606 12.6945H234.606C234.523 12.6945 234.439 12.6945 234.439 12.8612L234.189 13.6112C234.189 13.6945 234.106 13.6945 234.106 13.6945H232.356L232.523 13.2778L234.939 7.61117C234.939 7.1945 235.189 7.02783 235.606 7.02783H236.856C236.939 7.02783 237.023 7.02783 237.023 7.1945L238.189 12.6112C238.273 12.9445 238.356 13.1945 238.356 13.5278C238.439 13.6112 238.439 13.6112 238.439 13.6945ZM227.273 13.4445L227.606 11.9445C227.689 11.9445 227.773 12.0278 227.773 12.0278C228.356 12.2778 228.939 12.4445 229.523 12.3612C229.689 12.3612 229.939 12.2778 230.106 12.1945C230.523 12.0278 230.523 11.6112 230.189 11.2778C230.023 11.1112 229.773 11.0278 229.523 10.8612C229.189 10.6945 228.856 10.5278 228.606 10.2778C227.606 9.4445 227.939 8.27783 228.523 7.6945C229.023 7.36117 229.273 7.02783 229.939 7.02783C230.939 7.02783 232.023 7.02783 232.523 7.1945H232.606C232.523 7.6945 232.439 8.11117 232.273 8.61117C231.856 8.4445 231.439 8.27783 231.023 8.27783C230.773 8.27783 230.523 8.27783 230.273 8.36117C230.106 8.36117 230.023 8.4445 229.939 8.52783C229.773 8.6945 229.773 8.9445 229.939 9.11117L230.356 9.4445C230.689 9.61117 231.023 9.77783 231.273 9.9445C231.689 10.1945 232.106 10.6112 232.189 11.1112C232.356 11.8612 232.106 12.5278 231.439 13.0278C231.023 13.3612 230.856 13.5278 230.273 13.5278C229.106 13.5278 228.189 13.6112 227.439 13.3612C227.356 13.5278 227.356 13.5278 227.273 13.4445ZM224.356 13.6945C224.439 13.1112 224.439 13.1112 224.523 12.8612C224.939 11.0278 225.356 9.11117 225.689 7.27783C225.773 7.11117 225.773 7.02783 225.939 7.02783H227.439C227.273 8.02783 227.106 8.77783 226.856 9.6945C226.606 10.9445 226.356 12.1945 226.023 13.4445C226.023 13.6112 225.939 13.6112 225.773 13.6112L224.356 13.6945ZM216.606 7.1945C216.606 7.11117 216.773 7.02783 216.856 7.02783H219.689C220.106 7.02783 220.439 7.27783 220.523 7.6945L221.273 11.3612C221.273 11.4445 221.273 11.4445 221.356 11.5278C221.356 11.4445 221.439 11.4445 221.439 11.4445L223.189 7.1945C223.106 7.11117 223.189 7.02783 223.273 7.02783H225.023C225.023 7.11117 225.023 7.11117 224.939 7.1945L222.356 13.2778C222.273 13.4445 222.273 13.5278 222.189 13.6112C222.106 13.6945 221.939 13.6112 221.773 13.6112H220.523C220.439 13.6112 220.356 13.6112 220.356 13.4445L219.023 8.27783C218.856 8.11117 218.606 7.86117 218.273 7.77783C217.773 7.52783 216.856 7.36117 216.689 7.36117L216.606 7.1945Z" fill="#142688"/>
<defs>
<linearGradient id="paint0_linear_361_1092" x1="103.82" y1="10.7222" x2="102.133" y2="8.07971" gradientUnits="userSpaceOnUse">
<stop stop-color="#F89F20"/>
<stop offset="0.25" stop-color="#F79A20"/>
<stop offset="0.533" stop-color="#F68D20"/>
<stop offset="0.62" stop-color="#F58720"/>
<stop offset="0.723" stop-color="#F48120"/>
<stop offset="1" stop-color="#F37521"/>
</linearGradient>
<linearGradient id="paint1_linear_361_1092" x1="103.555" y1="10.6864" x2="101.088" y2="5.86471" gradientUnits="userSpaceOnUse">
<stop stop-color="#F58720"/>
<stop offset="0.359" stop-color="#E16F27"/>
<stop offset="0.703" stop-color="#D4602C"/>
<stop offset="0.982" stop-color="#D05B2E"/>
</linearGradient>
<linearGradient id="paint2_linear_361_1092" x1="135.21" y1="6.03088" x2="131.463" y2="8.79588" gradientUnits="userSpaceOnUse">
<stop stop-color="#24D365"/>
<stop offset="1" stop-color="#139DBD"/>
</linearGradient>
<linearGradient id="paint3_linear_361_1092" x1="135.181" y1="6.00671" x2="138.939" y2="8.78755" gradientUnits="userSpaceOnUse">
<stop stop-color="#23D068"/>
<stop offset="0.52" stop-color="#EACD36"/>
<stop offset="1" stop-color="#FF6C5C"/>
</linearGradient>
<linearGradient id="paint4_linear_361_1092" x1="132.54" y1="13.5919" x2="137.852" y2="13.5919" gradientUnits="userSpaceOnUse">
<stop stop-color="#266FF3"/>
<stop offset="1" stop-color="#C439D6"/>
</linearGradient>
<linearGradient id="paint5_linear_361_1092" x1="131.718" y1="13.6063" x2="130.173" y2="9.0196" gradientUnits="userSpaceOnUse">
<stop stop-color="#266FF3"/>
<stop offset="1" stop-color="#149FBA"/>
</linearGradient>
<linearGradient id="paint6_linear_361_1092" x1="139.022" y1="8.62267" x2="137.474" y2="13.1902" gradientUnits="userSpaceOnUse">
<stop stop-color="#FF6C5C"/>
<stop offset="1" stop-color="#C439D6"/>
</linearGradient>
</defs>
</svg>
