<svg width="117" height="62" viewBox="0 0 117 62" fill="none" xmlns="http://www.w3.org/2000/svg">
<path opacity="0.07" d="M29.1667 0H2.5C1.08333 0 0 1.08333 0 2.5V17.5C0 18.9167 1.16667 20 2.5 20H29.1667C30.5833 20 31.6667 18.9167 31.6667 17.5V2.5C31.6667 1.08333 30.5 0 29.1667 0Z" fill="black"/>
<path d="M29.1666 0.833252C30.0833 0.833252 30.8333 1.58325 30.8333 2.49992V17.4999C30.8333 18.4166 30.0833 19.1666 29.1666 19.1666H2.49992C1.58325 19.1666 0.833252 18.4166 0.833252 17.4999V2.49992C0.833252 1.58325 1.58325 0.833252 2.49992 0.833252H29.1666Z" fill="#006FCF"/>
<path d="M7.47575 8.55675L8.12075 10.1201H6.83575L7.47575 8.55675ZM20.8716 8.62175H18.3908V9.31091H20.8316V10.3434H18.3958V11.1117H20.8766V11.7276L22.6074 9.85675L20.8766 7.90675L20.8716 8.62175ZM9.15242 6.67175H12.4816L13.2208 8.28425L13.9058 6.66675H22.5474L23.4458 7.65841L24.3749 6.66675H28.3441L25.4116 9.87675L28.3141 13.0667H24.2858L23.3874 12.0751L22.4499 13.0667H8.35825L7.94659 12.0751H7.00492L6.59242 13.0667H3.33325L6.07158 6.66675H8.92992L9.15242 6.67175ZM16.3716 7.57008H14.5058L13.2558 10.5167L11.9016 7.57008H10.0499V11.5784L8.33325 7.57008H6.67242L4.68742 12.1634H5.98325L6.39492 11.1717H8.55825L8.96992 12.1634H11.2366V8.88425L12.6958 12.1684H13.6874L15.1374 8.89425V12.1692H16.3524L16.3724 7.56925L16.3716 7.57008ZM24.1549 9.87675L26.2641 7.57008H24.7458L23.4116 9.00841L22.1216 7.57008H17.2099V12.1684H22.0516L23.3966 10.7201L24.6866 12.1684H26.2491L24.1558 9.87675H24.1549Z" fill="white"/>
<path opacity="0.07" d="M71.6667 0H45C43.5833 0 42.5 1.08333 42.5 2.5V17.5C42.5 18.9167 43.6667 20 45 20H71.6667C73.0833 20 74.1667 18.9167 74.1667 17.5V2.5C74.1667 1.08333 73 0 71.6667 0Z" fill="black"/>
<path d="M71.6666 0.833252C72.5833 0.833252 73.3333 1.58325 73.3333 2.49992V17.4999C73.3333 18.4166 72.5833 19.1666 71.6666 19.1666H44.9999C44.0833 19.1666 43.3333 18.4166 43.3333 17.4999V2.49992C43.3333 1.58325 44.0833 0.833252 44.9999 0.833252H71.6666Z" fill="white"/>
<path d="M52.4999 10.0001V13.0834C52.4999 13.3334 52.3332 13.3334 52.0832 13.2501C50.4999 12.5834 49.5832 10.5001 50.1666 8.75008C50.4999 7.83341 51.1666 7.08342 52.0832 6.75008C52.4166 6.58342 52.4999 6.66675 52.4999 6.91675V10.0001ZM54.1666 10.0001V6.91675C54.1666 6.66675 54.1666 6.66675 54.4166 6.75008C56.1666 7.41675 57.0832 9.50008 56.4166 11.2501C56.0832 12.1667 55.4166 12.9167 54.4999 13.2501C54.1666 13.4167 54.1666 13.3334 54.1666 13.0834V10.0001ZM60.1666 4.16675H53.3332C56.4999 4.16675 58.9999 6.75008 58.9999 10.0001C58.9999 13.2501 56.4999 15.8334 53.3332 15.8334H60.1666C63.3332 15.8334 65.8332 13.2501 65.8332 10.0001C65.8332 6.75008 63.3332 4.16675 60.1666 4.16675Z" fill="#3086C8"/>
<path opacity="0.07" d="M114.167 0H87.5C86.0833 0 85 1.08333 85 2.5V17.5C85 18.9167 86.1667 20 87.5 20H114.167C115.583 20 116.667 18.9167 116.667 17.5V2.5C116.667 1.08333 115.5 0 114.167 0Z" fill="black"/>
<path d="M114.167 0.833252C115.083 0.833252 115.833 1.58325 115.833 2.49992V17.4999C115.833 18.4166 115.083 19.1666 114.167 19.1666H87.4999C86.5833 19.1666 85.8333 18.4166 85.8333 17.4999V2.49992C85.8333 1.58325 86.5833 0.833252 87.4999 0.833252H114.167Z" fill="white"/>
<path d="M87.9751 5.96694H86.6667V10.5503H87.9751C88.6667 10.5503 89.1667 10.3836 89.6084 10.0253C90.1334 9.59194 90.4417 8.94194 90.4417 8.26694C90.4334 6.90861 89.4251 5.96694 87.9751 5.96694ZM89.0251 9.41694C88.7417 9.66694 88.3834 9.78361 87.8001 9.78361H87.5584V6.75028H87.8001C88.3751 6.75028 88.7251 6.85028 89.0251 7.11694C89.3334 7.39194 89.5167 7.81694 89.5167 8.25861C89.5167 8.70028 89.3334 9.14194 89.0251 9.41694ZM90.8501 5.96694H91.7417V10.5503H90.8501V5.96694ZM93.9251 7.72528C93.3917 7.52528 93.2334 7.39194 93.2334 7.15028C93.2334 6.85861 93.5167 6.64194 93.9001 6.64194C94.1667 6.64194 94.3917 6.75028 94.6167 7.01694L95.0834 6.40861C94.7001 6.07528 94.2417 5.90028 93.7334 5.90028C92.9251 5.90028 92.3001 6.46694 92.3001 7.21694C92.3001 7.85028 92.5917 8.17528 93.4251 8.47528C93.7751 8.60028 93.9501 8.68361 94.0417 8.73361C94.2167 8.85028 94.3084 9.01694 94.3084 9.20861C94.3084 9.58361 94.0167 9.85861 93.6167 9.85861C93.1917 9.85861 92.8501 9.64194 92.6417 9.25028L92.0667 9.80861C92.4751 10.4169 92.9751 10.6836 93.6501 10.6836C94.5751 10.6836 95.2334 10.0669 95.2334 9.17528C95.2501 8.43361 94.9417 8.10028 93.9251 7.72528ZM95.5251 8.26694C95.5251 9.61694 96.5834 10.6586 97.9417 10.6586C98.3251 10.6586 98.6584 10.5836 99.0584 10.3919V9.34194C98.7001 9.70028 98.3834 9.84194 97.9834 9.84194C97.0834 9.84194 96.4417 9.19194 96.4417 8.25861C96.4417 7.37528 97.1001 6.68361 97.9417 6.68361C98.3667 6.68361 98.6917 6.83361 99.0584 7.20028V6.15028C98.6667 5.95028 98.3417 5.86694 97.9584 5.86694C96.6167 5.86694 95.5251 6.93361 95.5251 8.26694ZM106.158 9.05028L104.933 5.96694H103.958L105.9 10.6669H106.383L108.358 5.96694H107.392L106.158 9.05028ZM108.767 10.5503H111.3V9.77528H109.658V8.54194H111.242V7.76694H109.658V6.75028H111.3V5.96694H108.767V10.5503ZM114.842 7.32528C114.842 6.46694 114.25 5.97528 113.217 5.97528H111.892V10.5586H112.783V8.71694H112.9L114.133 10.5586H115.233L113.792 8.62528C114.467 8.48361 114.842 8.02528 114.842 7.32528ZM113.042 8.08361H112.783V6.69194H113.058C113.617 6.69194 113.917 6.92528 113.917 7.37528C113.917 7.83361 113.617 8.08361 113.042 8.08361Z" fill="#231F20"/>
<path d="M101.8 10.7168C102.448 10.7168 103.069 10.4595 103.527 10.0014C103.985 9.54334 104.242 8.92208 104.242 8.27429C104.242 7.6265 103.985 7.00524 103.527 6.54718C103.069 6.08912 102.448 5.83179 101.8 5.83179C101.152 5.83179 100.531 6.08912 100.073 6.54718C99.6148 7.00524 99.3574 7.6265 99.3574 8.27429C99.3574 8.92208 99.6148 9.54334 100.073 10.0014C100.531 10.4595 101.152 10.7168 101.8 10.7168Z" fill="url(#paint0_linear_303_167)"/>
<path opacity="0.65" d="M101.8 10.7168C102.448 10.7168 103.069 10.4595 103.527 10.0014C103.985 9.54334 104.242 8.92208 104.242 8.27429C104.242 7.6265 103.985 7.00524 103.527 6.54718C103.069 6.08912 102.448 5.83179 101.8 5.83179C101.152 5.83179 100.531 6.08912 100.073 6.54718C99.6148 7.00524 99.3574 7.6265 99.3574 8.27429C99.3574 8.92208 99.6148 9.54334 100.073 10.0014C100.531 10.4595 101.152 10.7168 101.8 10.7168Z" fill="url(#paint1_linear_303_167)"/>
<path d="M115.833 10.8198C115.833 10.8198 107.575 16.5607 92.48 19.1665H114.166C114.606 19.1665 115.027 18.9927 115.34 18.6831C115.652 18.3734 115.829 17.9529 115.832 17.5132L115.852 14.9965L115.833 10.8207V10.8198Z" fill="#F48120"/>
<path opacity="0.07" d="M30.1667 42H3.5C2.08333 42 1 43.0833 1 44.5V59.5C1 60.9167 2.16667 62 3.5 62H30.1667C31.5833 62 32.6667 60.9167 32.6667 59.5V44.5C32.6667 43.0833 31.5 42 30.1667 42Z" fill="black"/>
<path d="M30.1666 42.8333C31.0833 42.8333 31.8333 43.5833 31.8333 44.4999V59.4999C31.8333 60.4166 31.0833 61.1666 30.1666 61.1666H3.49992C2.58325 61.1666 1.83325 60.4166 1.83325 59.4999V44.4999C1.83325 43.5833 2.58325 42.8333 3.49992 42.8333H30.1666Z" fill="white"/>
<path fill-rule="evenodd" clip-rule="evenodd" d="M7.90867 46.7266H7.93784V47.4549H7.90867C6.02867 47.4549 4.43784 48.6716 3.90867 50.3482L3.20117 50.1274C3.82617 48.1566 5.69701 46.7266 7.90867 46.7266Z" fill="url(#paint2_linear_303_167)"/>
<path fill-rule="evenodd" clip-rule="evenodd" d="M7.93761 47.4549V46.7266H7.90845C10.1268 46.7266 12.0034 48.1666 12.6218 50.1474L11.9151 50.3691C11.3951 48.6907 9.81261 47.4674 7.93761 47.4549Z" fill="url(#paint3_linear_303_167)"/>
<path fill-rule="evenodd" clip-rule="evenodd" d="M10.369 54.8982L10.8048 55.4882C9.9595 56.0912 8.94647 56.4141 7.90814 56.4115C6.88587 56.4142 5.88768 56.1013 5.0498 55.5157L5.48647 54.9257C6.1698 55.4032 7.00564 55.684 7.90814 55.684C8.82814 55.684 9.67814 55.3924 10.369 54.8982Z" fill="url(#paint4_linear_303_167)"/>
<path fill-rule="evenodd" clip-rule="evenodd" d="M3.20169 50.1272L3.90836 50.348C3.78375 50.743 3.72052 51.1547 3.72086 51.5689C3.72086 52.9547 4.41752 54.1805 5.48669 54.9255L5.05086 55.5155C3.84002 54.668 3.03669 53.2964 2.98169 51.7389V51.3997C2.99752 50.958 3.07336 50.5314 3.20169 50.1272Z" fill="url(#paint5_linear_303_167)"/>
<path fill-rule="evenodd" clip-rule="evenodd" d="M12.8376 51.5692C12.8376 53.1809 12.0376 54.6075 10.8042 55.4884L10.3684 54.8992C10.9013 54.5224 11.3363 54.0235 11.6368 53.4441C11.9374 52.8648 12.0948 52.2219 12.0959 51.5692C12.0959 51.1509 12.0326 50.7467 11.9142 50.3667L12.6209 50.145C12.7626 50.595 12.8376 51.0734 12.8376 51.57V51.5692Z" fill="url(#paint6_linear_303_167)"/>
<path fill-rule="evenodd" clip-rule="evenodd" d="M10.2168 52.1818C10.2168 51.9252 10.0376 51.8102 9.6401 51.8102H8.66093V52.5518H9.6401C10.0443 52.5518 10.2168 52.441 10.2168 52.1818ZM9.5026 50.6268H8.66093V51.3685H9.5026C9.88343 51.3685 10.0559 51.2535 10.0559 50.9993C10.0559 50.7443 9.88093 50.6268 9.5026 50.6268ZM10.7309 52.2285C10.7309 52.7235 10.3359 53.0052 9.63926 53.0052H8.2001C8.1751 53.0052 8.15843 52.9885 8.15843 52.9643V50.2143C8.15843 50.1902 8.1751 50.1743 8.2001 50.1743H9.5126C10.1901 50.1743 10.5626 50.4351 10.5626 50.906C10.5626 51.1852 10.4376 51.4093 10.0768 51.5168C10.5334 51.6118 10.7184 51.881 10.7309 52.2285ZM7.5601 50.2143V50.5985C7.5601 50.6235 7.54343 50.6393 7.51843 50.6393H5.85176V51.3568H7.2351C7.2601 51.3568 7.27593 51.3735 7.27593 51.3977V51.781C7.27593 51.806 7.25926 51.8226 7.23426 51.8226H5.8526V52.9643C5.8526 52.9893 5.83593 53.0052 5.81093 53.0052H5.39176C5.36676 53.0052 5.3501 52.9885 5.3501 52.9643V50.2143C5.3501 50.1902 5.36676 50.1743 5.39176 50.1743H7.51926C7.54426 50.1743 7.56093 50.191 7.56093 50.2143H7.5601Z" fill="#64717D"/>
<path fill-rule="evenodd" clip-rule="evenodd" d="M27.0118 50.1832C27.4206 51.4424 27.89 52.6811 28.4185 53.8949L29.7101 50.1832H30.7426L28.8918 54.9782C28.6551 55.5924 28.3743 56.0657 28.0493 56.3991C27.7243 56.7324 27.2885 56.8991 26.7426 56.8991C26.6068 56.8991 26.4785 56.8882 26.3593 56.8666V56.0291C26.4593 56.0449 26.5485 56.0524 26.6235 56.0524C26.9551 56.0524 27.2251 55.9607 27.4335 55.7757C27.6418 55.5916 27.8251 55.3207 27.9826 54.9641C27.5917 54.1922 27.227 53.4073 26.8893 52.6107C26.5486 51.808 26.2235 50.9987 25.9143 50.1832H27.0118ZM23.1785 50.0716C23.7585 50.0716 24.2251 50.2357 24.5785 50.5641C24.9326 50.8932 25.1093 51.3849 25.1093 52.0391V54.8332H24.201V54.0749C24.0176 54.3482 23.7818 54.5582 23.4951 54.7057C23.1909 54.8569 22.8548 54.9326 22.5151 54.9266C22.016 54.9266 21.6285 54.7999 21.3526 54.5474C21.0768 54.2949 20.9385 53.9616 20.9385 53.5499C20.9385 53.1407 21.0943 52.7974 21.4051 52.5216C21.716 52.2466 22.2118 52.1074 22.8935 52.1074H24.181V52.0941C24.181 51.3124 23.8151 50.9216 23.0835 50.9216C22.7768 50.9216 22.5193 50.9757 22.3085 51.0849C22.0993 51.1932 21.9293 51.3449 21.8001 51.5407L21.1518 51.0241C21.3535 50.7174 21.6193 50.4816 21.9493 50.3174C22.2999 50.1483 22.6852 50.0638 23.0743 50.0707H23.1776L23.1785 50.0716ZM17.8001 48.3232C18.6301 48.3232 19.2501 48.5174 19.6601 48.9066C20.0701 49.2957 20.276 49.8232 20.276 50.4899C20.276 51.1541 20.0701 51.6816 19.6601 52.0716C19.2501 52.4624 18.6301 52.6574 17.8001 52.6574H16.0201V54.8341H15.0251V48.3232H17.7993H17.8001ZM24.181 52.8391H22.931C22.5593 52.8391 22.2935 52.8974 22.1335 53.0141C22.0576 53.0666 21.9961 53.1373 21.9545 53.2197C21.9128 53.302 21.8925 53.3935 21.8951 53.4857C21.8951 53.8941 22.1701 54.0991 22.7235 54.0991C23.0893 54.0991 23.3935 54.0182 23.6368 53.8549C23.8801 53.6924 24.0618 53.4716 24.181 53.1924V52.8391ZM17.706 49.2341H16.0201V51.7457H17.7051C18.2451 51.7457 18.6385 51.6416 18.8868 51.4316C19.1343 51.2232 19.2576 50.9091 19.2576 50.4899C19.2576 50.0716 19.1343 49.7574 18.8868 49.5482C18.6385 49.3391 18.2451 49.2341 17.7051 49.2341H17.706Z" fill="#1B2529"/>
<path opacity="0.07" d="M72.6667 42H46C44.5833 42 43.5 43.0833 43.5 44.5V59.5C43.5 60.9167 44.6667 62 46 62H72.6667C74.0833 62 75.1667 60.9167 75.1667 59.5V44.5C75.1667 43.0833 74 42 72.6667 42Z" fill="black"/>
<path d="M72.6668 42.8333C73.5835 42.8333 74.3335 43.5833 74.3335 44.4999V59.4999C74.3335 60.4166 73.5835 61.1666 72.6668 61.1666H46.0002C45.0835 61.1666 44.3335 60.4166 44.3335 59.4999V44.4999C44.3335 43.5833 45.0835 42.8333 46.0002 42.8333H72.6668Z" fill="white"/>
<path d="M55.9998 57.8334C59.2215 57.8334 61.8332 55.2217 61.8332 52.0001C61.8332 48.7784 59.2215 46.1667 55.9998 46.1667C52.7782 46.1667 50.1665 48.7784 50.1665 52.0001C50.1665 55.2217 52.7782 57.8334 55.9998 57.8334Z" fill="#EB001B"/>
<path d="M62.6666 57.8334C65.8882 57.8334 68.4999 55.2217 68.4999 52.0001C68.4999 48.7784 65.8882 46.1667 62.6666 46.1667C59.4449 46.1667 56.8333 48.7784 56.8333 52.0001C56.8333 55.2217 59.4449 57.8334 62.6666 57.8334Z" fill="#F79E1B"/>
<path d="M61.8333 52C61.8333 50 60.8333 48.25 59.3333 47.25C57.8333 48.3333 56.8333 50.0833 56.8333 52C56.8333 53.9167 57.8333 55.75 59.3333 56.75C60.8333 55.75 61.8333 54 61.8333 52Z" fill="#FF5F00"/>
<path d="M114.333 42.8333C115.25 42.8333 116 43.5833 116 44.4999V59.4999C116 60.4166 115.25 61.1666 114.333 61.1666H87.6667C86.75 61.1666 86 60.4166 86 59.4999V44.4999C86 43.5833 86.75 42.8333 87.6667 42.8333H114.333Z" fill="white"/>
<path d="M108.75 50.4165H108.5C108.167 51.2498 107.917 51.6665 107.667 52.9165H109.25C109 51.6665 109 51.0832 108.75 50.4165ZM111.167 55.3332H109.75C109.667 55.3332 109.667 55.3332 109.583 55.2498L109.417 54.4998L109.333 54.3332H107.333C107.25 54.3332 107.167 54.3332 107.167 54.4998L106.917 55.2498C106.917 55.3332 106.833 55.3332 106.833 55.3332H105.083L105.25 54.9165L107.667 49.2498C107.667 48.8332 107.917 48.6665 108.333 48.6665H109.583C109.667 48.6665 109.75 48.6665 109.75 48.8332L110.917 54.2498C111 54.5832 111.083 54.8332 111.083 55.1665C111.167 55.2498 111.167 55.2498 111.167 55.3332ZM99.9999 55.0832L100.333 53.5832C100.417 53.5832 100.5 53.6665 100.5 53.6665C101.083 53.9165 101.667 54.0832 102.25 53.9998C102.417 53.9998 102.667 53.9165 102.833 53.8332C103.25 53.6665 103.25 53.2498 102.917 52.9165C102.75 52.7498 102.5 52.6665 102.25 52.4998C101.917 52.3332 101.583 52.1665 101.333 51.9165C100.333 51.0832 100.667 49.9165 101.25 49.3332C101.75 48.9998 102 48.6665 102.667 48.6665C103.667 48.6665 104.75 48.6665 105.25 48.8332H105.333C105.25 49.3332 105.167 49.7498 105 50.2498C104.583 50.0832 104.167 49.9165 103.75 49.9165C103.5 49.9165 103.25 49.9165 103 49.9998C102.833 49.9998 102.75 50.0832 102.667 50.1665C102.5 50.3332 102.5 50.5832 102.667 50.7498L103.083 51.0832C103.417 51.2498 103.75 51.4165 104 51.5832C104.417 51.8332 104.833 52.2498 104.917 52.7498C105.083 53.4998 104.833 54.1665 104.167 54.6665C103.75 54.9998 103.583 55.1665 103 55.1665C101.833 55.1665 100.917 55.2498 100.167 54.9998C100.083 55.1665 100.083 55.1665 99.9999 55.0832ZM97.0833 55.3332C97.1666 54.7498 97.1666 54.7498 97.2499 54.4998C97.6666 52.6665 98.0833 50.7498 98.4166 48.9165C98.4999 48.7498 98.4999 48.6665 98.6666 48.6665H100.167C99.9999 49.6665 99.8333 50.4165 99.5833 51.3332C99.3333 52.5832 99.0833 53.8332 98.7499 55.0832C98.7499 55.2498 98.6666 55.2498 98.4999 55.2498L97.0833 55.3332ZM89.3333 48.8332C89.3333 48.7498 89.4999 48.6665 89.5833 48.6665H92.4166C92.8333 48.6665 93.1666 48.9165 93.2499 49.3332L93.9999 52.9998C93.9999 53.0832 93.9999 53.0832 94.0833 53.1665C94.0833 53.0832 94.1666 53.0832 94.1666 53.0832L95.9166 48.8332C95.8333 48.7498 95.9166 48.6665 95.9999 48.6665H97.7499C97.7499 48.7498 97.7499 48.7498 97.6666 48.8332L95.0833 54.9165C94.9999 55.0832 94.9999 55.1665 94.9166 55.2498C94.8333 55.3332 94.6666 55.2498 94.4999 55.2498H93.2499C93.1666 55.2498 93.0833 55.2498 93.0833 55.0832L91.7499 49.9165C91.5833 49.7498 91.3333 49.4998 90.9999 49.4165C90.4999 49.1665 89.5833 48.9998 89.4166 48.9998L89.3333 48.8332Z" fill="#142688"/>
<defs>
<linearGradient id="paint0_linear_303_167" x1="103.047" y1="10.2293" x2="101.36" y2="7.58679" gradientUnits="userSpaceOnUse">
<stop stop-color="#F89F20"/>
<stop offset="0.25" stop-color="#F79A20"/>
<stop offset="0.533" stop-color="#F68D20"/>
<stop offset="0.62" stop-color="#F58720"/>
<stop offset="0.723" stop-color="#F48120"/>
<stop offset="1" stop-color="#F37521"/>
</linearGradient>
<linearGradient id="paint1_linear_303_167" x1="102.782" y1="10.1935" x2="100.315" y2="5.37179" gradientUnits="userSpaceOnUse">
<stop stop-color="#F58720"/>
<stop offset="0.359" stop-color="#E16F27"/>
<stop offset="0.703" stop-color="#D4602C"/>
<stop offset="0.982" stop-color="#D05B2E"/>
</linearGradient>
<linearGradient id="paint2_linear_303_167" x1="7.93784" y1="47.6691" x2="4.19034" y2="50.4341" gradientUnits="userSpaceOnUse">
<stop stop-color="#24D365"/>
<stop offset="1" stop-color="#139DBD"/>
</linearGradient>
<linearGradient id="paint3_linear_303_167" x1="7.90845" y1="47.6449" x2="11.6668" y2="50.4257" gradientUnits="userSpaceOnUse">
<stop stop-color="#23D068"/>
<stop offset="0.52" stop-color="#EACD36"/>
<stop offset="1" stop-color="#FF6C5C"/>
</linearGradient>
<linearGradient id="paint4_linear_303_167" x1="5.2673" y1="55.2299" x2="10.5798" y2="55.2299" gradientUnits="userSpaceOnUse">
<stop stop-color="#266FF3"/>
<stop offset="1" stop-color="#C439D6"/>
</linearGradient>
<linearGradient id="paint5_linear_303_167" x1="4.44586" y1="55.2447" x2="2.90086" y2="50.658" gradientUnits="userSpaceOnUse">
<stop stop-color="#266FF3"/>
<stop offset="1" stop-color="#149FBA"/>
</linearGradient>
<linearGradient id="paint6_linear_303_167" x1="11.7492" y1="50.2609" x2="10.2009" y2="54.8284" gradientUnits="userSpaceOnUse">
<stop stop-color="#FF6C5C"/>
<stop offset="1" stop-color="#C439D6"/>
</linearGradient>
</defs>
</svg>
